<svg xmlns="http://www.w3.org/2000/svg">
<defs>
<font id="UTMFacebookK&TBold" horiz-adv-x="1021" >
  <font-face 
    font-family="UTMFacebookK&TBold"
    font-weight="700"
    font-stretch="normal"
    units-per-em="2048"
    panose-1="2 4 6 3 5 5 6 2 2 4"
    ascent="1638"
    descent="-410"
    x-height="997"
    cap-height="1364"
    bbox="-39 -444 4942 2185"
    underline-thickness="109"
    underline-position="-143"
    unicode-range="U+0020-2026"
  />
<missing-glyph horiz-adv-x="5040" 
d="M3351 2045h10q37 -10 37 -52q0 -12 -32 -57h-28q0 24 28 54l2 10q-5 13 -10 15h-9q-8 0 -10 -19h-30q6 49 42 49zM2019 2016l29 -31q0 -16 -40 -30h-19l-59 12l-11 -12l-28 25q11 29 43 29h11l42 -11h2q10 0 30 18zM468 1980h142v-60h-94v-75h89v-59h-89v-129l-5 -5h-49
v323zM1155 1980h43l6 -5v-78h30v-52h-30v-188l-6 -5h-49v193h-25v52h25v78zM1621 1980h42l4 -5v-94h3q23 24 54 24h2q58 0 83 -71l2 -39v-143h-52v115q0 80 -42 80h-7q-43 0 -43 -86v-109h-51v323zM2200 1980h49l5 -5v-222q10 -51 45 -51q44 7 44 59v214l5 5h49v-216
q0 -85 -66 -112q-15 -8 -35 -8q-47 0 -82 55q-14 24 -14 57v224zM2435 1980h159v-60h-56v-268h-53v268h-55v55zM2621 1980h71q7 -4 83 -251h2l80 251h73v-328h-54v242h-2l-74 -242h-44q-4 0 -58 182l-19 60h-3v-242h-55v328zM3760 1980h52v-328h-45l-5 5v11l3 2l-3 14
q-29 -40 -78 -40q-67 0 -100 91l-5 39v3q0 94 92 125l23 3q35 0 63 -32h3v107zM2057 1928h36l4 -6v-49h-45v-221h-48v23q-23 -31 -59 -31q-89 14 -89 97v156h51v-104q0 -79 26 -86l18 -5h6q26 0 39 36l3 26v133h53v25zM3476 1928v-55h-31v-221h-47v25h-2q-15 -33 -57 -33
q-68 0 -86 78l-3 29v146h52v-120q0 -50 19 -68l21 -7h9q42 0 42 69v126h27q4 0 4 28l3 3h49zM758 1905q68 0 103 -77q9 -18 12 -54q0 -88 -90 -127l-32 -3q-63 0 -101 73q-12 22 -12 52v10q0 94 101 126h19zM1011 1905h3q74 0 83 -101v-152h-51v119q0 76 -42 76h-5
q-44 0 -44 -76v-119h-52v245h46v-21q30 29 62 29zM1466 1905h7q72 0 105 -89h-60q-16 31 -42 31h-17q-53 -14 -53 -61l-3 -15q12 -69 61 -69h9q22 0 47 27h40l2 3h3l2 -3l2 3l3 -3l2 3l2 -7q-33 -81 -110 -81q-76 0 -110 94l-4 36v3q0 85 77 120q15 8 37 8zM3141 1905h2

<glyph glyph-name=".notdef" horiz-adv-x="5040" 
d="M3351 2045h10q37 -10 37 -52q0 -12 -32 -57h-28q0 24 28 54l2 10q-5 13 -10 15h-9q-8 0 -10 -19h-30q6 49 42 49zM2019 2016l29 -31q0 -16 -40 -30h-19l-59 12l-11 -12l-28 25q11 29 43 29h11l42 -11h2q10 0 30 18zM468 1980h142v-60h-94v-75h89v-59h-89v-129l-5 -5h-49
v323zM1155 1980h43l6 -5v-78h30v-52h-30v-188l-6 -5h-49v193h-25v52h25v78zM1621 1980h42l4 -5v-94h3q23 24 54 24h2q58 0 83 -71l2 -39v-143h-52v115q0 80 -42 80h-7q-43 0 -43 -86v-109h-51v323zM2200 1980h49l5 -5v-222q10 -51 45 -51q44 7 44 59v214l5 5h49v-216
q0 -85 -66 -112q-15 -8 -35 -8q-47 0 -82 55q-14 24 -14 57v224zM2435 1980h159v-60h-56v-268h-53v268h-55v55zM2621 1980h71q7 -4 83 -251h2l80 251h73v-328h-54v242h-2l-74 -242h-44q-4 0 -58 182l-19 60h-3v-242h-55v328zM3760 1980h52v-328h-45l-5 5v11l3 2l-3 14
q-29 -40 -78 -40q-67 0 -100 91l-5 39v3q0 94 92 125l23 3q35 0 63 -32h3v107zM2057 1928h36l4 -6v-49h-45v-221h-48v23q-23 -31 -59 -31q-89 14 -89 97v156h51v-104q0 -79 26 -86l18 -5h6q26 0 39 36l3 26v133h53v25zM3476 1928v-55h-31v-221h-47v25h-2q-15 -33 -57 -33
q-68 0 -86 78l-3 29v146h52v-120q0 -50 19 -68l21 -7h9q42 0 42 69v126h27q4 0 4 28l3 3h49zM758 1905q68 0 103 -77q9 -18 12 -54q0 -88 -90 -127l-32 -3q-63 0 -101 73q-12 22 -12 52v10q0 94 101 126h19zM1011 1905h3q74 0 83 -101v-152h-51v119q0 76 -42 76h-5
q-44 0 -44 -76v-119h-52v245h46v-21q30 29 62 29zM1466 1905h7q72 0 105 -89h-60q-16 31 -42 31h-17q-53 -14 -53 -61l-3 -15q12 -69 61 -69h9q22 0 47 27h40l2 3h3l2 -3l2 3l3 -3l2 3l2 -7q-33 -81 -110 -81q-76 0 -110 94l-4 36v3q0 85 77 120q15 8 37 8zM3141 1905h2
q49 0 70 -60v-14h-52q0 16 -16 16h-4q-14 0 -19 -13v-13q0 -9 68 -35q30 -19 30 -59q0 -58 -61 -80l-23 -3q-76 12 -76 83h54q0 -20 27 -25h4q19 0 24 23q0 22 -68 44q-34 27 -34 59q0 66 74 77zM4203 1905q55 0 77 -63q7 -18 7 -65v-125h-52v112q0 83 -40 83h-11
q-33 0 -40 -54v-141h-52v5h-2l2 2v238h47v-21q25 29 64 29zM4432 1905h5q40 0 69 -40v18l-3 3l3 11h47v-208q0 -97 -85 -132l-33 -4h-7q-70 0 -104 80h59q24 -22 45 -23h13q22 0 43 22q15 13 22 52h-3q-32 -40 -73 -40q-57 0 -96 70q-10 18 -14 63q0 88 87 125zM3851 1897
h53v-136q6 -59 40 -59h7q46 0 46 93v102h51v-245h-47l-3 10h3l-3 3v5l3 2v3h-4q0 -23 -57 -31h-3q-59 0 -84 75l-2 85v93zM690 1771q10 -69 63 -69h7q59 14 59 65v15q-13 65 -59 65h-5q-58 0 -65 -76zM3630 1774q13 -72 61 -72h5q58 0 66 75q0 49 -51 70h-22q-37 0 -56 -57z
M4374 1774q8 -72 65 -72h5q59 12 59 72q0 61 -59 73h-14q-56 -16 -56 -62v-11zM3928 1620h52v-57h-52v57zM1054 1402q43 -11 43 -49v-4q0 -17 -32 -60h-28q0 25 31 57v7q0 12 -7 15h-12q-10 -4 -10 -19h-28v6q0 32 33 44zM3349 1339q92 0 138 -99h-60q-37 42 -80 42
q-55 0 -87 -68q-10 -22 -10 -47q0 -78 81 -110l18 -1q36 0 75 39h61q-44 -97 -138 -97q-93 0 -141 112q-10 31 -10 62q0 97 90 152q29 15 63 15zM3664 1339q57 0 103 -47q46 -51 46 -115v-20q0 -89 -91 -146q-33 -13 -63 -13q-89 0 -138 101q-13 33 -13 60v18q0 98 98 151
q29 11 58 11zM2261 1337h2l47 -11h3q11 0 26 11l18 -36q-18 -19 -35 -19h-3l-54 10l-20 -7l-20 36q18 16 36 16zM716 1334h19q118 0 129 -26q25 -26 25 -62q-10 -57 -30 -57v-6q47 -23 47 -66v-18q0 -63 -69 -88l-54 -5h-67v328zM2550 1334h53v-217q6 -61 45 -61q29 0 44 39
l3 30v203l4 6h45l5 -6v-171q0 -118 -40 -133q-24 -26 -64 -26q-55 0 -91 76l-4 54v206zM2805 1334h59q4 0 122 -237h4v237h50l4 -6v-322h-58q-29 48 -125 238h-3v-238h-53v328zM3101 1334h54v-328h-54v328zM3859 1334h8q155 0 174 -40q23 -11 47 -75l4 -36v-11l3 -2
q0 -94 -82 -149q-35 -15 -99 -15h-55v328zM4141 1334h153v-60h-103v-75h101v-57h-101v-74l4 -5h99v-57h-157v322zM3563 1175v-10q0 -76 79 -108l19 -1q68 0 96 86l3 20v15q0 61 -60 94q-12 8 -39 11q-66 0 -96 -83zM770 1274v-67h9q54 0 54 28l3 14q-11 25 -29 25h-37z
M3912 1274v-206l2 -3v-2q104 0 122 76l2 15v29q0 34 -32 68q-25 23 -78 23h-16zM1041 1259h5q38 0 71 -40v32h49v-245h-49v32q-36 -40 -80 -40q-75 0 -101 97l-5 36q0 89 85 125zM1314 1259h3q74 0 83 -102v-151h-51v128q0 67 -42 67h-10q-34 0 -39 -62v-133h-52v245h47v-21
q28 29 61 29zM1543 1259h5q45 0 71 -40v32h47v-219q0 -95 -104 -126h-16q-74 0 -108 82h59q26 -25 44 -25h14q52 0 64 77q-33 -42 -76 -42q-60 0 -101 81l-7 44v16q0 79 85 117zM1912 1259h2q43 0 61 -37h2q32 37 69 37h4q57 0 79 -55q8 -25 8 -45v-153h-52v138q0 44 -23 55
l-12 2h-15q-32 0 -36 -65v-130h-52v136q0 59 -43 59h-8q-32 0 -36 -57v-138h-54v245h50v-21h2q6 24 54 29zM2282 1259q47 0 75 -42v34h47v-245h-47v32q-36 -40 -78 -40q-74 0 -102 92l-6 41q0 90 85 125zM985 1117q0 -48 61 -61h4q45 0 62 46l3 15v22q-12 62 -57 62h-14
q-41 0 -59 -57v-27zM1487 1128q0 -48 43 -68l18 -4h5q47 0 63 57v23q-11 65 -58 65h-12q-50 0 -59 -73zM2225 1131v-14q15 -61 57 -61h14q58 12 58 64v11q0 45 -37 65l-18 5h-10q-64 -8 -64 -70zM770 1150v-82q0 -5 7 -5q77 0 77 45q0 34 -47 42h-37zM2966 753l24 -28
l-51 -55q-18 12 -27 26zM1524 727l85 -54q0 -15 -21 -42l-87 54q18 41 23 42zM2850 693h38l55 -60h-54l-21 26l-23 -26h-54q54 60 59 60zM3422 693h40l56 -60h-54l-24 26h-1q0 -5 -19 -26h-54zM622 685h52q8 -4 47 -137l34 -110q9 8 34 100l48 147h54v-2l-112 -326h-44z
M1159 685h51v-54h-51v54zM1354 685h46l6 -5v-323h-52v328zM2317 685h45l4 -5v-78h31v-52h-31v-193h-53v193h-26v52h26v78zM2425 685h52v-98h2q23 23 54 23h3q57 0 81 -71l3 -38v-144h-52v115q0 81 -39 81h-10q-42 0 -42 -87v-109h-52v328zM2664 685h52v-54h-52v54zM3028 685
h44l6 -5v-78h29v-52h-29v-193h-54v193h-27v52h27v78zM3234 685h52v-328h-52v328zM3957 685h52v-328h-52v328zM4316 685h51v-54h-51v54zM1555 610h5q83 0 110 -102l3 -23v-11q0 -83 -85 -120l-35 -5q-76 0 -111 97l-4 32q0 97 93 130zM1811 610h4q53 0 78 -60q7 -25 7 -81
v-112h-54v146q-7 50 -37 50h-10q-38 0 -42 -57v-139h-54v245h49v-21q26 29 59 29zM2046 610h4q45 0 63 -39h3v31h49v-206q0 -102 -89 -135l-28 -3h-5q-73 0 -106 81h52l37 -20l15 -3h14q50 0 61 72q-33 -39 -73 -39q-62 0 -98 76q-11 23 -12 60q0 85 86 123zM2866 610h2
q82 0 111 -104l2 -25l-2 -27h-172q15 -45 45 -45l14 -3q29 0 49 22h57v-3q-35 -76 -108 -76q-77 0 -111 97l-1 28v8q0 49 32 89q34 39 82 39zM3429 610h5q41 0 70 -39h2v31h47v-245h-47v31h-2q-35 -39 -77 -39q-71 0 -101 89l-5 36v14q0 86 84 120zM3711 610h7
q88 0 107 -128l-2 -1v-15q0 -65 -66 -106q-21 -11 -46 -11q-34 0 -64 32v-99l-5 -5h-49v325h49v-28q31 36 69 36zM4151 610q44 0 75 -39v31h49v-245h-49v31q-35 -39 -77 -39q-92 0 -108 132q0 84 73 121q15 8 37 8zM922 602h50v-136q3 -60 42 -60h5q44 0 44 87v109h52v-245
h-47v24h-5q0 -23 -56 -32h-3q-55 0 -82 68q-4 35 -4 99v81zM1159 602h51v-245h-51v245zM2664 602h52v-245h-52v245zM4316 602h51v-245h-51v245zM1492 488v-16q13 -66 59 -66h4q59 0 66 76q-13 71 -59 71h-11q-59 -16 -59 -65zM1987 472q15 -66 59 -66h11q48 0 59 75v1
q-13 71 -59 71h-14q-39 0 -56 -57v-24zM2805 506h122v2q-16 45 -59 45h-7q-35 0 -56 -47zM3373 474q13 -68 61 -68h5q52 0 65 63v12q-10 72 -57 72h-16q-56 -14 -56 -63zM3642 478q12 -72 61 -72h3q50 0 65 60v22q0 43 -49 65h-22q-47 0 -58 -72v-3zM4095 472q10 -66 66 -66
q43 0 61 48l2 15v16q0 54 -52 68h-18q-42 0 -59 -60v-21zM3416 321h51v-52h-51v52zM4137 321h51v-52h-51v52zM2733 133h4q35 0 43 -50v-2q0 -16 -24 -41l-10 -17h-28q0 25 28 56l3 2v2q-3 19 -9 19h-10q-8 0 -9 -19h-30q6 50 42 50zM1546 116l52 -60l-26 -19l-52 52zM352 79
h4q75 -48 85 -60l-20 -37q-88 49 -88 58zM3490 79l86 -58l-18 -39q-10 0 -91 55q15 36 23 42zM4578 76l19 -42l-91 -52l-20 39l92 58v-3zM1204 53h51v-19l5 -5h14v-36h-14l-5 -5v-279h-46v31q-34 -40 -81 -40q-72 0 -102 105l-3 26q0 102 101 131h14q33 0 66 -33v59l-6 5
h-43v36h49v24zM1480 45h40l56 -61h-53l-23 27l-23 -27h-53zM2641 45h33q12 0 63 -61h-54l-23 27q-19 -21 -19 -27h-58v4zM49 37h160v-60h-56v-268h-50l-4 5v245l2 3v2l-2 2l2 3l-2 2l2 3l-2 3h-54v54zM699 37h47v-73l2 -2l-2 -3v-3l2 -2l-2 -3v-3l2 -2v-2l-2 -3l2 -3h3
q17 24 51 24h3q53 0 77 -58q7 -17 7 -42v-153h-52v127q0 68 -40 68h-8q-43 0 -43 -86v-109h-52v322zM1297 37h47l5 -6v-49h-52v55zM1987 37h52v-198l70 115h62l-78 -118l90 -125v-2h-70q-10 22 -74 115v-115h-52v328zM2271 37v-99q24 24 53 24q57 0 80 -56q10 -19 10 -77
v-120h-54v133q0 62 -41 62h-11q-31 0 -37 -55v-140h-53v314l-1 3v3l1 2l-1 3l1 3h53zM2458 37h51v-55h-51v55zM3148 37h51v-108q27 33 68 33h3q75 0 105 -94l5 -37q0 -75 -64 -120q-30 -11 -49 -11q-41 0 -72 40v-31h-47v328zM4275 37h52v-99h2q23 24 54 24h3q60 0 82 -74
l2 -41v-138h-52v111q0 82 -32 82l-10 2h-12q-37 0 -37 -80v-115h-52v328zM329 -38h3v-58h-5q-42 0 -42 -57v-138h-53v245h47v-21q18 29 50 29zM564 -38q71 0 86 -87v-166h-51v136q-6 59 -41 59h-6q-45 0 -45 -84v-111h-52v245h50v-21q25 29 59 29zM1504 -38q72 0 105 -94
l5 -39q-2 -24 -7 -24h-169q17 -47 62 -47q24 0 48 21h57q-33 -79 -108 -79q-82 0 -113 105v37q0 81 89 117zM2657 -38h5q77 0 107 -97l3 -26v-21l-3 -13h-170q18 -47 53 -47h12q21 0 42 21h59q-34 -79 -105 -79q-84 0 -115 102l-2 29q0 93 91 128zM2915 -38h4q54 0 78 -60
q7 -25 7 -82v-111h-54v138q0 48 -35 57h-11q-38 0 -43 -57v-138h-54v245h50v-21q25 29 58 29zM3508 -38h6q40 0 70 -40h2v32h47v-245h-47v31h-2q-34 -40 -78 -40q-71 0 -101 90l-4 37v12q0 82 77 117q11 6 30 6zM3781 -38h4q62 0 82 -78l3 -84v-91h-54v138q0 48 -38 57h-9
q-38 0 -42 -52v-143h-54v245h49v-21q26 29 59 29zM4133 -38h1q74 0 104 -93l4 -40q0 -88 -84 -126l-25 -3q-41 0 -68 34v-106h-52v326h47v-29q30 37 73 37zM4714 -38h5q34 0 63 -37q27 37 69 37h6q56 0 79 -66l6 -51v-136h-52v122q0 73 -39 73h-7q-35 0 -41 -50v-140l-5 -5
h-48v140q0 42 -31 55h-17q-40 0 -40 -77v-118h-51v245h47v-21q22 29 56 29zM359 -46h49l5 -6v-234l-5 -5h-49v245zM1297 -46h52v-245h-52v245zM1649 -46h52v-136q4 -60 43 -60h4q44 0 44 81v115h52v-245h-47v24h-5q-12 -33 -59 -33q-52 0 -79 63q-5 12 -5 34v157zM2458 -46
h51v-245h-51v245zM4515 -46h51v-245h-51v245zM1077 -169q0 -53 51 -73h12q54 0 66 66v10q0 53 -54 70h-17q-38 0 -58 -57v-16zM1438 -143h122q-18 47 -53 47h-7q-43 0 -62 -44v-3zM2599 -143h122q-21 47 -54 47h-7q-46 0 -61 -47zM3196 -158v-11q10 -73 61 -73h5q64 8 64 71
v5q0 45 -38 65l-18 5h-14q-60 -14 -60 -62zM3452 -173q14 -69 62 -69h11q41 0 59 60v13q-8 73 -56 73h-17q-47 0 -59 -73v-4zM4062 -158v-22q0 -47 59 -62h9q50 0 61 76q-13 70 -58 70h-15q-56 -17 -56 -62z" />
    <glyph glyph-name=".null" horiz-adv-x="0" 
 />
    <glyph glyph-name="nonmarkingreturn" horiz-adv-x="571" 
 />
    <glyph glyph-name="space" unicode=" " horiz-adv-x="430" 
 />
    <glyph glyph-name="exclam" unicode="!" horiz-adv-x="581" 
d="M204 473l-61 356v576h295v-576l-62 -356h-172zM143 0v340h295v-340h-295z" />
    <glyph glyph-name="quotedbl" unicode="&#x22;" horiz-adv-x="776" 
d="M102 1405h203v-508h-203v508zM471 1405h202v-508h-202v508z" />
    <glyph glyph-name="numbersign" unicode="#" horiz-adv-x="1388" 
d="M819 322h-291l-17 -322h-211l17 322h-246l10 196h244l14 295h-250l11 197h250l16 313h211l-17 -313h291l17 313h211l-17 -313h234l-11 -197h-233l-14 -295h239l-10 -196h-238l-16 -322h-211zM536 518h291l14 295h-291z" />
    <glyph glyph-name="dollar" unicode="$" horiz-adv-x="1028" 
d="M391 -16q-158 12 -299 65l53 240q93 -27 165 -40q84 -16 161 -16q104 0 138 31q32 29 32 117q0 87 -28 113q-32 30 -167 57q-218 43 -285 128q-61 77 -61 284q0 181 74 267q79 93 270 109v236h236v-238q134 -10 231 -34l-31 -252q-156 34 -337 34q-95 0 -122 -24
q-26 -24 -26 -105q0 -84 28 -107q26 -21 173 -58q234 -60 294 -144q30 -42 39 -109q7 -47 7 -155q0 -188 -59 -273q-68 -99 -250 -122v-236h-236v232z" />
    <glyph glyph-name="percent" unicode="%" horiz-adv-x="1785" 
d="M728 936q0 -141 -67 -212q-79 -85 -260 -85q-182 0 -262 85q-68 72 -68 212v151q0 141 68 213q80 84 262 84q181 0 260 -84q67 -72 67 -213v-151zM501 1104q0 84 -100 84q-103 0 -103 -84v-184q0 -84 103 -84q100 0 100 84v184zM1066 1384l181 -71l-549 -1333l-181 73z
M1703 276q0 -140 -67 -212q-79 -84 -260 -84q-182 0 -262 84q-68 72 -68 212v152q0 140 68 212q80 85 262 85q181 0 260 -85q67 -71 67 -212v-152zM1476 444q0 84 -100 84q-103 0 -103 -84v-184q0 -84 103 -84q100 0 100 84v184z" />
    <glyph glyph-name="ampersand" unicode="&#x26;" horiz-adv-x="1323" 
d="M1261 555h-199v-502q-115 -37 -252 -56q-127 -17 -254 -17q-224 0 -335 97q-99 87 -99 242v111q0 207 158 275q-73 38 -107 110q-28 60 -28 141v86q0 160 96 246q109 96 338 96q120 0 243 -14q109 -13 201 -35l-37 -237q-191 39 -407 39q-140 0 -140 -109v-100
q0 -125 119 -125h703v-248zM417 354q0 -133 149 -133q122 0 218 23v311h-205q-162 0 -162 -125v-76z" />
    <glyph glyph-name="quotesingle" unicode="'" horiz-adv-x="407" 
d="M102 1405h203v-508h-203v508z" />
    <glyph glyph-name="parenleft" unicode="(" horiz-adv-x="667" 
d="M429 -315q-147 181 -227 402q-90 249 -90 536q0 286 90 535q80 221 227 403l218 -123q-60 -98 -100 -182q-46 -95 -76 -188q-64 -203 -64 -445q0 -243 64 -446q30 -92 76 -188q40 -84 100 -182z" />
    <glyph glyph-name="parenright" unicode=")" horiz-adv-x="667" 
d="M20 -193q59 98 100 182q46 96 75 188q65 203 65 446q0 242 -65 445q-29 93 -75 188q-41 84 -100 182l217 123q147 -182 227 -403q91 -249 91 -535q0 -287 -91 -536q-80 -221 -227 -402z" />
    <glyph glyph-name="asterisk" unicode="*" horiz-adv-x="956" 
d="M347 981h-266v137h270l-147 232l115 75l157 -245l158 245l115 -75l-150 -232h275v-137h-269l144 -223l-117 -74l-156 242l-155 -242l-117 74z" />
    <glyph glyph-name="plus" unicode="+" horiz-adv-x="1058" 
d="M647 385v-303h-236v303h-299v225h299v305h236v-305h299v-225h-299z" />
    <glyph glyph-name="comma" unicode="," horiz-adv-x="559" 
d="M245 -305l-133 76l117 229h-99v340h295v-360z" />
    <glyph glyph-name="hyphen" unicode="-" horiz-adv-x="692" 
d="M81 451v245h528v-245h-528z" />
    <glyph glyph-name="hyphen" unicode="&#x2010;" horiz-adv-x="692" 
d="M81 451v245h528v-245h-528z" />
    <glyph glyph-name="period" unicode="." horiz-adv-x="561" 
d="M133 0v340h295v-340h-295z" />
    <glyph glyph-name="slash" unicode="/" horiz-adv-x="946" 
d="M354 -240h-262l510 1624h262z" />
    <glyph glyph-name="zero" unicode="0" horiz-adv-x="1130" 
d="M1017 342q0 -168 -96 -258q-113 -104 -356 -104q-244 0 -356 104q-97 90 -97 258v639q0 168 97 258q112 104 356 104q243 0 356 -104q96 -90 96 -258v-639zM407 383q0 -145 158 -145q157 0 157 145v557q0 145 -157 145q-158 0 -158 -145v-557z" />
    <glyph glyph-name="one" unicode="1" horiz-adv-x="796" 
d="M358 0v981l-231 -125l-127 244l387 223h266v-1323h-295z" />
    <glyph glyph-name="two" unicode="2" horiz-adv-x="1030" 
d="M507 258h420v-258h-828v252l158 162q57 60 139 153q16 18 36 41l32 36q34 39 52 60q47 55 67 88q37 58 37 156v37q0 96 -162 96q-186 0 -338 -39l-39 248q206 53 391 53q443 0 443 -321v-53q0 -154 -25 -217q-30 -78 -164 -240q-141 -171 -219 -254z" />
    <glyph glyph-name="three" unicode="3" horiz-adv-x="997" 
d="M407 788q168 0 168 127v84q0 105 -166 105q-123 0 -282 -29l-31 232q175 36 340 36q247 0 345 -76q89 -69 89 -231v-96q0 -188 -137 -272q162 -73 162 -252v-105q0 -164 -94 -241q-110 -90 -373 -90q-198 0 -336 45l31 227q145 -27 295 -27q182 0 182 109v94
q0 109 -150 109h-270v251h227z" />
    <glyph glyph-name="four" unicode="4" horiz-adv-x="1150" 
d="M923 281v-281h-291v281h-602v256l506 786h387v-803h166v-239h-166zM632 1030l-313 -510h313v510z" />
    <glyph glyph-name="five" unicode="5" horiz-adv-x="1019" 
d="M632 416q0 70 -28 93q-30 25 -127 30q-182 7 -326 10v774h748v-256h-453v-279l184 -8q166 -10 237 -90q60 -68 60 -201v-145q-1 -188 -91 -270q-105 -94 -369 -94q-78 0 -175 12q-111 14 -190 39l43 237q149 -32 319 -32q100 0 137 30q31 26 31 94v56z" />
    <glyph glyph-name="six" unicode="6" horiz-adv-x="1060" 
d="M185 97q-83 93 -83 278v499q0 263 173 374q79 51 199 74q107 21 257 21q96 0 200 -16l-20 -242q-72 11 -139 11q-209 0 -291 -46q-84 -48 -84 -173v-101q100 31 225 31q346 0 346 -344v-88q0 -179 -84 -275q-106 -120 -350 -120q-245 0 -349 117zM673 360v91
q0 102 -100 102q-96 0 -176 -37v-156q0 -127 137 -127q139 0 139 127z" />
    <glyph glyph-name="seven" unicode="7" horiz-adv-x="935" 
d="M454 0h-303l436 1063h-547v260h854v-250z" />
    <glyph glyph-name="eight" unicode="8" horiz-adv-x="1093" 
d="M102 432q0 149 172 242q-139 91 -139 229v115q0 162 91 240q100 85 320 85q221 0 321 -85q91 -78 91 -240v-115q0 -141 -139 -229q172 -93 172 -242v-104q0 -189 -100 -268q-102 -80 -345 -80t-344 80q-100 79 -100 268v104zM387 332q0 -111 159 -111q160 0 160 111v67
q0 55 -23 79q-30 31 -141 73q-108 -42 -136 -73q-19 -22 -19 -79v-67zM419 907q0 -48 21 -69q24 -25 111 -58q85 32 106 58q16 19 16 69v99q0 98 -127 98t-127 -98v-99z" />
    <glyph glyph-name="nine" unicode="9" horiz-adv-x="1050" 
d="M864 1226q83 -93 83 -278v-499q0 -263 -173 -374q-79 -51 -198 -74q-108 -21 -257 -21q-99 0 -201 16l16 242l15 -2q10 -1 17 -2q20 -2 35 -3q43 -4 77 -4q204 0 287 46q87 49 87 173v101q-100 -31 -225 -31q-346 0 -346 344v88q0 179 84 275q106 120 350 120
q245 0 349 -117zM376 963v-91q0 -102 100 -102q96 0 176 37v156q0 127 -137 127q-139 0 -139 -127z" />
    <glyph glyph-name="colon" unicode=":" horiz-adv-x="561" 
d="M133 0v340h295v-340h-295zM133 596v340h295v-340h-295z" />
    <glyph glyph-name="semicolon" unicode=";" horiz-adv-x="559" 
d="M130 596v340h295v-340h-295zM245 -305l-133 76l117 229h-99v340h295v-360z" />
    <glyph glyph-name="less" unicode="&#x3c;" horiz-adv-x="1159" 
d="M61 424v151l907 443l88 -174l-721 -344l721 -344l-88 -176z" />
    <glyph glyph-name="equal" unicode="=" horiz-adv-x="1075" 
d="M112 614v197h850v-197h-850zM112 217v197h850v-197h-850z" />
    <glyph glyph-name="greater" unicode="&#x3e;" horiz-adv-x="1159" 
d="M190 -20l-88 176l721 344l-721 344l88 174l907 -443v-151z" />
    <glyph glyph-name="question" unicode="?" horiz-adv-x="993" 
d="M311 0v340h295v-340h-295zM331 692q191 142 236 197q39 48 39 131q0 143 -193 143q-65 0 -147 -9q-69 -8 -154 -24l-41 254q202 41 375 41q259 0 365 -104q89 -88 89 -285q0 -189 -58 -273q-61 -88 -345 -296z" />
    <glyph glyph-name="at" unicode="@" horiz-adv-x="1478" 
d="M1150 47q-144 -67 -338 -67q-328 0 -531 198q-200 195 -200 504q0 304 184 500q189 202 498 202q291 0 468 -168q165 -158 165 -393q0 -188 -93 -312q-106 -140 -296 -140q-161 0 -205 114q-83 -55 -205 -55q-145 0 -145 154q0 30 6 67l31 150q38 221 266 221
q130 0 282 -68l-86 -405q23 -19 70 -19q93 0 144 89q46 79 46 200q0 167 -108 275q-121 120 -340 120q-221 0 -357 -150q-135 -148 -135 -382q0 -243 155 -388q148 -138 380 -138q137 0 291 49zM857 850q-49 20 -119 20q-61 0 -75 -67l-33 -146q-14 -67 53 -67q24 0 65 15
q34 13 58 28z" />
    <glyph glyph-name="A" unicode="A" horiz-adv-x="1284" 
d="M1263 0h-319l-74 266h-457l-74 -266h-319l416 1364h409zM483 522h313l-155 572z" />
    <glyph glyph-name="B" unicode="B" horiz-adv-x="1171" 
d="M1110 326q0 -326 -395 -326h-582v1364h539q205 0 301 -80q88 -74 88 -219v-139q0 -150 -152 -215q201 -48 201 -252v-133zM754 1020q0 96 -123 96h-191v-311h191q123 0 123 96v119zM803 451q0 114 -129 114h-234v-317h191q172 0 172 119v84z" />
    <glyph glyph-name="C" unicode="C" horiz-adv-x="1067" 
d="M409 446q0 -188 191 -188q162 0 352 33l43 -268q-203 -43 -395 -43q-250 0 -378 115q-120 109 -120 302v570q0 193 120 301q128 116 378 116q192 0 395 -43l-43 -268q-190 33 -352 33q-191 0 -191 -188v-472z" />
    <glyph glyph-name="D" unicode="D" horiz-adv-x="1224" 
d="M1122 354q0 -151 -104 -245q-121 -109 -357 -109h-528v1364h528q236 0 357 -108q104 -94 104 -246v-656zM815 926q0 166 -190 166h-185v-820h185q190 0 190 166v488z" />
    <glyph glyph-name="E" unicode="E" horiz-adv-x="1093" 
d="M133 0v1364h858v-272h-551v-250h508v-273h-508v-297h551v-272h-858z" />
    <glyph glyph-name="F" unicode="F" horiz-adv-x="1060" 
d="M133 0v1364h866v-272h-559v-291h516v-273h-516v-528h-307z" />
    <glyph glyph-name="G" unicode="G" horiz-adv-x="1196" 
d="M1073 45q-228 -65 -471 -65t-375 115q-125 111 -125 302v570q0 417 500 417q110 0 233 -13q106 -11 203 -30l-37 -268q-211 33 -399 33q-108 0 -154 -53q-39 -45 -39 -133v-469q0 -90 39 -138q47 -57 154 -57q86 0 182 12v418h289v-641z" />
    <glyph glyph-name="H" unicode="H" horiz-adv-x="1320" 
d="M881 0v549h-441v-549h-307v1364h307v-543h441v543h307v-1364h-307z" />
    <glyph glyph-name="I" unicode="I" horiz-adv-x="593" 
d="M143 0v1364h307v-1364h-307z" />
    <glyph glyph-name="J" unicode="J" horiz-adv-x="563" 
d="M-32 -215q112 90 139 126q27 35 27 89v1364h307v-1411q0 -92 -77 -188q-66 -83 -214 -197z" />
    <glyph glyph-name="K" unicode="K" horiz-adv-x="1263" 
d="M133 1364h307v-1364h-307v1364zM479 696l369 668h346l-383 -668l412 -696h-347z" />
    <glyph glyph-name="L" unicode="L" 
d="M133 0v1364h307v-1092h541v-272h-848z" />
    <glyph glyph-name="M" unicode="M" horiz-adv-x="1609" 
d="M429 758l-20 -758h-297l57 1364h308l327 -868l328 868h307l57 -1364h-297l-20 758l-238 -582h-274z" />
    <glyph glyph-name="N" unicode="N" horiz-adv-x="1384" 
d="M426 897v-897h-293v1364h377l448 -940v940h293v-1364h-379z" />
    <glyph glyph-name="O" unicode="O" horiz-adv-x="1261" 
d="M1159 397q0 -174 -120 -286q-140 -131 -409 -131q-268 0 -408 131q-120 112 -120 286v570q0 174 120 286q140 131 408 131q269 0 409 -131q120 -112 120 -286v-570zM852 940q0 172 -222 172q-221 0 -221 -172v-516q0 -172 221 -172q222 0 222 172v516z" />
    <glyph glyph-name="P" unicode="P" horiz-adv-x="1196" 
d="M1145 799q0 -385 -471 -385h-234v-414h-307v1364h557q243 0 352 -98q103 -92 103 -289v-178zM838 948q0 144 -164 144h-234v-412h234q164 0 164 149v119z" />
    <glyph glyph-name="Q" unicode="Q" horiz-adv-x="1261" 
d="M540 -16q-222 20 -338 146q-100 109 -100 267v570q0 174 120 286q140 131 408 131q269 0 409 -131q120 -112 120 -286v-570q0 -130 -70 -229q-80 -111 -233 -158l108 -254l-278 -116zM852 940q0 172 -222 172q-221 0 -221 -172v-516q0 -172 221 -172q222 0 222 172v516z
" />
    <glyph glyph-name="R" unicode="R" horiz-adv-x="1316" 
d="M620 424h-180v-424h-307v1364h567q243 0 352 -98q103 -92 103 -289v-168q0 -259 -199 -342l330 -467h-365zM848 948q0 144 -164 144h-244v-402h244q164 0 164 150v108z" />
    <glyph glyph-name="S" unicode="S" horiz-adv-x="1114" 
d="M937 80q-110 -100 -405 -100q-247 0 -440 88l51 237q102 -31 191 -47q102 -18 202 -18q117 0 154 29q35 29 35 116q0 94 -31 121q-35 29 -199 65q-245 54 -313 133q-65 76 -65 300q0 210 95 292q102 88 376 88q95 0 194 -10q111 -11 219 -35l-30 -258q-228 39 -379 39
q-103 0 -136 -25q-32 -24 -32 -100q0 -97 30 -122q28 -23 191 -62q264 -63 332 -146q35 -44 46 -114q9 -53 9 -168q0 -216 -95 -303z" />
    <glyph glyph-name="T" unicode="T" horiz-adv-x="1089" 
d="M698 1092v-1092h-307v1092h-367v272h1040v-272h-366z" />
    <glyph glyph-name="U" unicode="U" horiz-adv-x="1273" 
d="M1150 1364v-967q0 -176 -113 -286q-134 -131 -401 -131t-401 131q-113 110 -113 286v967h307v-938q0 -174 207 -174t207 174v938h307z" />
    <glyph glyph-name="V" unicode="V" horiz-adv-x="1208" 
d="M823 0h-438l-385 1364h315l289 -1085l289 1085h315z" />
    <glyph glyph-name="W" unicode="W" horiz-adv-x="1933" 
d="M1589 0h-391l-230 1036l-231 -1036h-391l-336 1364h303l232 -975l237 975h375l233 -975l230 975h303z" />
    <glyph glyph-name="X" unicode="X" horiz-adv-x="1253" 
d="M798 692l413 -692h-321l-264 451l-264 -451h-322l412 692l-398 672h322l250 -430l250 430h321z" />
    <glyph glyph-name="Y" unicode="Y" horiz-adv-x="1155" 
d="M731 393v-393h-307v393l-424 971h322l256 -633l256 633h321z" />
    <glyph glyph-name="Z" unicode="Z" horiz-adv-x="1159" 
d="M452 252h604v-252h-954v250l600 862h-573v252h917v-252z" />
    <glyph glyph-name="bracketleft" unicode="[" horiz-adv-x="653" 
d="M153 -258v1876h459v-236h-164v-1405h164v-235h-459z" />
    <glyph glyph-name="backslash" unicode="\" horiz-adv-x="946" 
d="M81 1384h262l510 -1624h-262z" />
    <glyph glyph-name="bracketright" unicode="]" horiz-adv-x="653" 
d="M40 -258v235h164v1405h-164v236h459v-1876h-459z" />
    <glyph glyph-name="asciicircum" unicode="^" horiz-adv-x="954" 
d="M706 752l-232 411l-231 -411l-172 106l309 547h189l313 -547z" />
    <glyph glyph-name="underscore" unicode="_" horiz-adv-x="909" 
d="M-2 -176v156h913v-156h-913z" />
    <glyph glyph-name="grave" unicode="`" horiz-adv-x="634" 
d="M429 1100q-143 79 -317 192l111 172q75 -55 157 -110l152 -99z" />
    <glyph glyph-name="a" unicode="a" 
d="M667 0l-20 63q-80 -44 -160 -65q-68 -18 -125 -18q-131 0 -199 87q-61 79 -61 216q0 280 297 280h215v76q0 81 -29 107q-34 30 -147 30q-124 0 -270 -28l-39 221q161 49 358 49q252 0 341 -87q81 -79 81 -294v-637h-242zM614 358h-141q-88 0 -88 -71q0 -78 79 -78
q73 0 150 35v114z" />
    <glyph glyph-name="b" unicode="b" horiz-adv-x="1099" 
d="M1018 399q0 -98 -17 -165q-21 -81 -69 -134q-109 -120 -393 -120q-87 0 -192 7q-117 9 -214 25v1393l295 41v-483q66 25 130 39q77 16 153 16q307 0 307 -361v-258zM428 240q43 -4 121 -4q102 0 142 45q32 36 32 116v258q0 107 -107 107q-81 0 -188 -55v-467z" />
    <glyph glyph-name="c" unicode="c" horiz-adv-x="831" 
d="M366 381q0 -150 162 -150q97 0 205 25l36 -246q-136 -30 -241 -30q-457 0 -457 405v227q0 406 457 406q105 0 241 -31l-36 -246q-106 25 -205 25q-162 0 -162 -150v-235z" />
    <glyph glyph-name="d" unicode="d" horiz-adv-x="1099" 
d="M81 649q0 369 336 369q136 0 254 -29v416l295 41v-1446h-232l-30 80q-61 -39 -139 -67q-94 -33 -169 -33q-315 0 -315 368v301zM671 737q-103 25 -189 25q-106 0 -106 -113v-301q0 -112 106 -112q98 0 189 77v424z" />
    <glyph glyph-name="e" unicode="e" horiz-adv-x="995" 
d="M376 395v-28q0 -146 180 -146q161 0 303 43l43 -221q-73 -27 -169 -44q-107 -19 -206 -19q-233 0 -344 110q-102 101 -102 295v233q0 181 90 281q107 119 338 119q229 0 326 -126q42 -53 61 -132q16 -67 16 -156v-209h-536zM634 659q0 127 -123 127q-135 0 -135 -127v-43
h258v43z" />
    <glyph glyph-name="f" unicode="f" horiz-adv-x="755" 
d="M718 1186q-72 14 -131 14q-65 0 -86 -29q-15 -20 -15 -77v-117h236l-20 -242h-216v-735h-294v735h-152v242h152v149q0 320 337 320q57 0 115 -8l111 -21z" />
    <glyph glyph-name="g" unicode="g" horiz-adv-x="991" 
d="M71 692q3 158 95 238q101 88 313 88q88 0 170 -21h311v-139l-101 -37q24 -55 27 -129v-121q0 -317 -407 -317h-31q-43 -26 -43 -55q0 -38 33 -41l247 -25q242 -21 242 -244q0 -174 -113 -246q-105 -67 -346 -67q-81 0 -186 13q-119 14 -211 38l43 215q170 -41 328 -41
q215 0 215 72q0 47 -78 55q-76 7 -123 12l-109 11q-12 1 -22 2q-113 12 -157 44q-56 40 -56 136t86 182q-127 76 -127 256v121zM612 586v94q0 104 -133 104q-134 0 -134 -104v-94q0 -99 134 -99q133 0 133 99z" />
    <glyph glyph-name="h" unicode="h" horiz-adv-x="1132" 
d="M715 0v659q0 72 -72 72q-37 0 -104 -24q-55 -21 -111 -50v-657h-295v1405l291 41v-520q201 92 356 92q230 0 230 -320v-698h-295z" />
    <glyph glyph-name="i" unicode="i" horiz-adv-x="561" 
d="M133 1122v314h295v-314h-295zM133 0v997h295v-997h-295z" />
    <glyph glyph-name="j" unicode="j" horiz-adv-x="540" 
d="M124 1122v314h295v-314h-295zM-30 -231q7 6 17 15q1 2 4 4l42 39q31 30 48 52q43 54 43 113v1005h295v-1044q0 -152 -271 -377z" />
    <glyph glyph-name="k" unicode="k" horiz-adv-x="1079" 
d="M133 0v1405l295 41v-1446h-295zM721 997h315l-262 -495l274 -502h-315l-266 502z" />
    <glyph glyph-name="l" unicode="l" horiz-adv-x="561" 
d="M133 0v1405l295 41v-1446h-295z" />
    <glyph glyph-name="m" unicode="m" horiz-adv-x="1714" 
d="M715 0v659q0 72 -72 72q-84 0 -215 -72v-659h-295v997h219l31 -75q199 96 397 96q128 0 182 -96q197 96 400 96q229 0 229 -320v-698h-295v659q0 72 -71 72q-85 0 -215 -72v-659h-295z" />
    <glyph glyph-name="n" unicode="n" horiz-adv-x="1132" 
d="M715 0v659q0 72 -72 72q-84 0 -215 -72v-659h-295v997h219l31 -75q199 96 397 96q230 0 230 -320v-698h-295z" />
    <glyph glyph-name="o" unicode="o" horiz-adv-x="1064" 
d="M173 104q-92 102 -92 279v231q0 177 92 279q114 125 359 125q244 0 358 -125q92 -102 92 -279v-231q0 -177 -92 -279q-114 -124 -358 -124q-245 0 -359 124zM687 375v248q0 147 -155 147q-156 0 -156 -147v-248q0 -148 156 -148q155 0 155 148z" />
    <glyph glyph-name="p" unicode="p" horiz-adv-x="1099" 
d="M1018 348q0 -368 -336 -368q-136 0 -254 28v-411l-295 -41v1441h231l31 -79q60 38 139 67q93 33 168 33q316 0 316 -369v-301zM428 260q102 -24 188 -24q107 0 107 112v301q0 113 -107 113q-97 0 -188 -78v-424z" />
    <glyph glyph-name="q" unicode="q" horiz-adv-x="1099" 
d="M81 598q0 99 17 166q20 80 68 133q110 121 394 121q197 0 406 -35v-1386l-295 -41v479q-67 -26 -131 -39q-76 -16 -152 -16q-307 0 -307 360v258zM671 758q-43 4 -121 4q-102 0 -142 -46q-32 -36 -32 -116v-258q0 -106 106 -106q82 0 189 55v467z" />
    <glyph glyph-name="r" unicode="r" horiz-adv-x="706" 
d="M692 739q-75 -29 -141 -61q-79 -39 -123 -70v-608h-295v997h246l20 -96q134 89 269 117z" />
    <glyph glyph-name="s" unicode="s" horiz-adv-x="886" 
d="M736 61q-87 -81 -293 -81q-184 0 -362 59l47 219q67 -20 140 -32q83 -13 161 -13q103 0 103 84q0 49 -21 64q-25 18 -141 47q-173 42 -223 108q-41 54 -41 203q0 163 78 228q84 71 303 71q65 0 146 -8q96 -9 157 -25l-27 -229q-154 28 -274 28q-107 0 -107 -67
q0 -47 19 -61q20 -16 108 -35q204 -46 259 -112q46 -54 46 -212q0 -162 -78 -236z" />
    <glyph glyph-name="t" unicode="t" horiz-adv-x="737" 
d="M679 16q-107 -36 -213 -36q-301 0 -301 256v524h-135v237h135v240l295 41v-281h227l-16 -237h-211v-484q0 -55 62 -55q67 0 122 19z" />
    <glyph glyph-name="u" unicode="u" horiz-adv-x="1132" 
d="M417 997v-659q0 -72 72 -72q84 0 215 72v659h295v-997h-220l-30 76q-199 -96 -398 -96q-229 0 -229 319v698h295z" />
    <glyph glyph-name="v" unicode="v" horiz-adv-x="1024" 
d="M700 0h-377l-313 997h299l203 -706l203 706h299z" />
    <glyph glyph-name="w" unicode="w" horiz-adv-x="1443" 
d="M720 651l-192 -651h-320l-172 997h270l95 -583l174 583h295l172 -583l94 583h270l-172 -997h-319z" />
    <glyph glyph-name="x" unicode="x" horiz-adv-x="1007" 
d="M659 502l317 -502h-297l-176 276l-176 -276h-297l317 502l-309 495h291l174 -272l174 272h291z" />
    <glyph glyph-name="y" unicode="y" horiz-adv-x="1013" 
d="M295 -403l116 403h-94l-307 997h299l203 -706l203 706h299l-441 -1400h-278z" />
    <glyph glyph-name="z" unicode="z" horiz-adv-x="942" 
d="M94 997h754v-225l-414 -547h426v-225h-768v225l412 547h-410v225z" />
    <glyph glyph-name="braceleft" unicode="{" horiz-adv-x="696" 
d="M81 774h53q74 0 74 70v469q0 305 289 305h178v-234h-90q-82 0 -82 -86v-419q0 -210 -195 -215q195 -6 195 -215v-420q0 -86 82 -86h90v-234h-178q-289 0 -289 305v469q0 70 -74 70h-53v221z" />
    <glyph glyph-name="bar" unicode="|" horiz-adv-x="532" 
d="M163 -430v2048h205v-2048h-205z" />
    <glyph glyph-name="braceright" unicode="}" horiz-adv-x="696" 
d="M614 553h-53q-74 0 -74 -70v-469q0 -305 -289 -305h-178v234h90q82 0 82 86v420q0 209 195 215q-195 5 -195 215v419q0 86 -82 86h-90v234h178q289 0 289 -305v-469q0 -70 74 -70h53v-221z" />
    <glyph glyph-name="asciitilde" unicode="~" horiz-adv-x="944" 
d="M532 403q-34 14 -77 43l-63 44q-32 20 -52 20q-46 0 -81 -41q-25 -30 -48 -86l-160 92q101 258 289 258q33 0 76 -20q29 -13 76 -43l36 -24l35 -20q37 -20 61 -20q45 0 83 43q30 35 46 84l160 -92q-39 -116 -104 -181q-77 -77 -185 -77q-45 0 -92 20z" />
    <glyph glyph-name="dieresis" unicode="&#xa8;" horiz-adv-x="1024" 
 />
    <glyph glyph-name="copyright" unicode="&#xa9;" horiz-adv-x="1568" 
d="M716 608q0 -94 100 -94q86 0 160 16l27 -180q-81 -22 -187 -22q-315 0 -315 262v192q0 260 315 260q109 0 187 -22l-27 -180q-77 18 -160 18q-100 0 -100 -92v-158zM273 1180q199 206 510 206q312 0 511 -206q192 -200 192 -498q0 -297 -192 -496q-199 -206 -511 -206
q-311 0 -510 206q-192 199 -192 496q0 298 192 498zM417 319q141 -147 366 -147q226 0 367 147q137 144 137 363q0 220 -137 364q-141 148 -367 148q-225 0 -366 -148q-137 -144 -137 -364q0 -219 137 -363z" />
    <glyph glyph-name="registered" unicode="&#xae;" horiz-adv-x="923" 
d="M193 1318q103 107 268 107t269 -107q101 -105 101 -263q0 -159 -101 -264q-104 -109 -269 -109t-268 109q-101 105 -101 264q0 158 101 263zM273 873q66 -76 188 -76q121 0 188 76q61 70 61 182q0 111 -61 180q-67 76 -188 76q-122 0 -188 -76q-60 -69 -60 -180
q0 -112 60 -182zM459 1004h-41v-111h-82v340h141q113 0 113 -98v-33q0 -62 -45 -84l86 -125h-95zM510 1126q0 31 -39 31h-53v-80h53q39 0 39 33v16z" />
    <glyph glyph-name="acute" unicode="&#xb4;" horiz-adv-x="1024" 
 />
    <glyph glyph-name="paragraph" unicode="&#xb6;" horiz-adv-x="1024" 
d="M929 1435v-70h-127v-1365h-82v1365h-166v-1365h-84v738q-174 8 -275.5 102.5t-101.5 245.5q0 157 107.5 253t285.5 96h443z" />
    <glyph glyph-name="onequarter" unicode="&#xbc;" horiz-adv-x="1777" 
d="M1533 158v-158h-205v158h-374v147l282 524h297v-505h121v-166h-121zM1328 655l-163 -331h163v331zM319 494v583l-172 -82l-76 168l293 160h170v-829h-215zM1068 1415l160 -72l-635 -1433l-162 70z" />
    <glyph glyph-name="onehalf" unicode="&#xbd;" horiz-adv-x="1798" 
d="M319 494v583l-172 -82l-76 168l293 160h170v-829h-215zM1421 180h254v-180h-562v160l189 194q93 95 115 129q16 24 16 60v39q0 67 -78 67q-92 0 -223 -33l-39 187q149 43 287 43q151 0 212 -57q56 -52 56 -173v-67q0 -53 -14 -91q-18 -48 -70 -110q-88 -105 -143 -168z
M1066 1415l160 -72l-635 -1433l-162 70z" />
    <glyph glyph-name="threequarters" unicode="&#xbe;" horiz-adv-x="1812" 
d="M342 991q67 0 67 62v49q0 69 -98 69q-41 0 -88 -3q-57 -4 -88 -11l-25 162q111 24 211 24q295 0 295 -215v-47q0 -104 -94 -161q64 -22 88 -66q19 -35 19 -100v-45q0 -113 -61 -166q-71 -62 -243 -62q-123 0 -233 33l27 160q47 -10 121 -15q58 -4 116 -4q66 0 66 60v59
q0 60 -66 60h-215v157h201zM1569 158v-158h-205v158h-375v147l283 524h297v-505h120v-166h-120zM1364 655l-164 -331h164v331zM1098 1415l159 -72l-633 -1433l-161 70z" />
    <glyph glyph-name="Agrave" unicode="&#xc0;" horiz-adv-x="1284" 
d="M1263 0h-319l-74 266h-457l-74 -266h-319l416 1364h409zM483 522h313l-155 572zM669 1448q-170 90 -287 172l111 172q54 -42 132 -93l147 -95z" />
    <glyph glyph-name="Aacute" unicode="&#xc1;" horiz-adv-x="1284" 
d="M1263 0h-319l-74 266h-457l-74 -266h-319l416 1364h409zM483 522h313l-155 572zM546 1604q91 57 147 95q77 51 132 93l110 -172q-116 -82 -286 -172z" />
    <glyph glyph-name="Acircumflex" unicode="&#xc2;" horiz-adv-x="1284" 
d="M1263 0h-319l-74 266h-457l-74 -266h-319l416 1364h409zM483 522h313l-155 572zM823 1458q-98 43 -182 92q-85 -49 -183 -92l-80 127q125 85 263 193q137 -108 262 -193z" />
    <glyph glyph-name="Atilde" unicode="&#xc3;" horiz-adv-x="1284" 
d="M1263 0h-319l-74 266h-457l-74 -266h-319l416 1364h409zM483 522h313l-155 572zM628 1511q-62 45 -94 45q-30 0 -60 -32q-10 -11 -23 -30l-19 -30l-119 92q40 78 90 124q59 55 125 55q69 0 133 -43q72 -47 104 -47q60 0 78 84l140 -64q-56 -197 -218 -197q-75 0 -137 43z
" />
    <glyph glyph-name="Egrave" unicode="&#xc8;" horiz-adv-x="1093" 
d="M133 0v1364h858v-272h-551v-250h508v-273h-508v-297h551v-272h-858zM612 1448q-170 90 -286 172l110 172q54 -42 132 -93l147 -95z" />
    <glyph glyph-name="Eacute" unicode="&#xc9;" horiz-adv-x="1093" 
d="M133 0v1364h858v-272h-551v-250h508v-273h-508v-297h551v-272h-858zM420 1604q91 57 147 95q77 51 131 93l111 -172q-116 -82 -287 -172z" />
    <glyph glyph-name="Ecircumflex" unicode="&#xca;" horiz-adv-x="1093" 
d="M133 0v1364h858v-272h-551v-250h508v-273h-508v-297h551v-272h-858zM766 1458q-98 43 -182 92q-85 -49 -183 -92l-80 127q125 85 263 193q137 -108 262 -193z" />
    <glyph glyph-name="Igrave" unicode="&#xcc;" horiz-adv-x="593" 
d="M143 0v1364h307v-1364h-307zM334 1448q-171 90 -287 172l111 172q54 -42 131 -93l147 -95z" />
    <glyph glyph-name="Iacute" unicode="&#xcd;" horiz-adv-x="593" 
d="M143 0v1364h307v-1364h-307zM168 1604q90 57 147 95q77 51 131 93l111 -172q-116 -82 -287 -172z" />
    <glyph glyph-name="Ograve" unicode="&#xd2;" horiz-adv-x="1261" 
d="M1159 397q0 -174 -120 -286q-140 -131 -409 -131q-268 0 -408 131q-120 112 -120 286v570q0 174 120 286q140 131 408 131q269 0 409 -131q120 -112 120 -286v-570zM852 940q0 172 -222 172q-221 0 -221 -172v-516q0 -172 221 -172q222 0 222 172v516zM643 1448
q-171 90 -287 172l111 172q54 -42 131 -93l147 -95z" />
    <glyph glyph-name="Oacute" unicode="&#xd3;" horiz-adv-x="1261" 
d="M1159 397q0 -174 -120 -286q-140 -131 -409 -131q-268 0 -408 131q-120 112 -120 286v570q0 174 120 286q140 131 408 131q269 0 409 -131q120 -112 120 -286v-570zM852 940q0 172 -222 172q-221 0 -221 -172v-516q0 -172 221 -172q222 0 222 172v516zM512 1604
q90 57 147 95q77 51 131 93l111 -172q-116 -82 -287 -172z" />
    <glyph glyph-name="Ocircumflex" unicode="&#xd4;" horiz-adv-x="1261" 
d="M1159 397q0 -174 -120 -286q-140 -131 -409 -131q-268 0 -408 131q-120 112 -120 286v570q0 174 120 286q140 131 408 131q269 0 409 -131q120 -112 120 -286v-570zM852 940q0 172 -222 172q-221 0 -221 -172v-516q0 -172 221 -172q222 0 222 172v516zM813 1458
q-98 43 -183 92q-85 -49 -182 -92l-80 127q124 85 262 193q138 -108 263 -193z" />
    <glyph glyph-name="Otilde" unicode="&#xd5;" horiz-adv-x="1261" 
d="M1159 397q0 -174 -120 -286q-140 -131 -409 -131q-268 0 -408 131q-120 112 -120 286v570q0 174 120 286q140 131 408 131q269 0 409 -131q120 -112 120 -286v-570zM852 940q0 172 -222 172q-221 0 -221 -172v-516q0 -172 221 -172q222 0 222 172v516zM624 1511
q-62 45 -94 45q-30 0 -60 -32q-10 -11 -23 -30l-19 -30l-119 92q40 78 90 124q59 55 125 55q68 0 133 -43q72 -47 104 -47q60 0 78 84l140 -64q-56 -197 -218 -197q-75 0 -137 43z" />
    <glyph glyph-name="Ugrave" unicode="&#xd9;" horiz-adv-x="1273" 
d="M1150 1364v-967q0 -176 -113 -286q-134 -131 -401 -131t-401 131q-113 110 -113 286v967h307v-938q0 -174 207 -174t207 174v938h307zM689 1448q-170 90 -286 172l110 172q55 -42 132 -93l147 -95z" />
    <glyph glyph-name="Uacute" unicode="&#xda;" horiz-adv-x="1273" 
d="M1150 1364v-967q0 -176 -113 -286q-134 -131 -401 -131t-401 131q-113 110 -113 286v967h307v-938q0 -174 207 -174t207 174v938h307zM491 1604q90 57 147 95q77 51 131 93l111 -172q-116 -82 -287 -172z" />
    <glyph glyph-name="Yacute" unicode="&#xdd;" horiz-adv-x="1155" 
d="M731 393v-393h-307v393l-424 971h322l256 -633l256 633h321zM512 1685q90 57 147 95q77 51 131 93l111 -172q-116 -82 -287 -172z" />
    <glyph glyph-name="agrave" unicode="&#xe0;" 
d="M667 0l-20 63q-80 -44 -160 -65q-68 -18 -125 -18q-131 0 -199 87q-61 79 -61 216q0 280 297 280h215v76q0 81 -29 107q-34 30 -147 30q-124 0 -270 -28l-39 221q161 49 358 49q252 0 341 -87q81 -79 81 -294v-637h-242zM614 358h-141q-88 0 -88 -71q0 -78 79 -78
q73 0 150 35v114zM559 1100q-144 79 -318 192l111 172q75 -55 158 -110l151 -99z" />
    <glyph glyph-name="aacute" unicode="&#xe1;" 
d="M667 0l-20 63q-80 -44 -160 -65q-68 -18 -125 -18q-131 0 -199 87q-61 79 -61 216q0 280 297 280h215v76q0 81 -29 107q-34 30 -147 30q-124 0 -270 -28l-39 221q161 49 358 49q252 0 341 -87q81 -79 81 -294v-637h-242zM614 358h-141q-88 0 -88 -71q0 -78 79 -78
q73 0 150 35v114zM358 1255q87 55 152 99q82 55 157 110l111 -172q-174 -113 -318 -192z" />
    <glyph glyph-name="acircumflex" unicode="&#xe2;" 
d="M667 0l-20 63q-80 -44 -160 -65q-68 -18 -125 -18q-131 0 -199 87q-61 79 -61 216q0 280 297 280h215v76q0 81 -29 107q-34 30 -147 30q-124 0 -270 -28l-39 221q161 49 358 49q252 0 341 -87q81 -79 81 -294v-637h-242zM614 358h-141q-88 0 -88 -71q0 -78 79 -78
q73 0 150 35v114zM227 1208q155 120 293 240q137 -120 293 -240l-90 -121q-118 71 -203 134q-85 -63 -203 -134z" />
    <glyph glyph-name="atilde" unicode="&#xe3;" 
d="M667 0l-20 63q-80 -44 -160 -65q-68 -18 -125 -18q-131 0 -199 87q-61 79 -61 216q0 280 297 280h215v76q0 81 -29 107q-34 30 -147 30q-124 0 -270 -28l-39 221q161 49 358 49q252 0 341 -87q81 -79 81 -294v-637h-242zM614 358h-141q-88 0 -88 -71q0 -78 79 -78
q73 0 150 35v114zM497 1161q-62 45 -94 45q-30 0 -60 -32q-10 -12 -23 -30l-19 -30l-119 92q40 78 90 124q59 54 125 54q69 0 133 -43q72 -47 104 -47q60 0 78 84l140 -63q-56 -197 -218 -197q-75 0 -137 43z" />
    <glyph glyph-name="egrave" unicode="&#xe8;" horiz-adv-x="995" 
d="M376 395v-28q0 -146 180 -146q161 0 303 43l43 -221q-73 -27 -169 -44q-107 -19 -206 -19q-233 0 -344 110q-102 101 -102 295v233q0 181 90 281q107 119 338 119q229 0 326 -126q42 -53 61 -132q16 -67 16 -156v-209h-536zM634 659q0 127 -123 127q-135 0 -135 -127v-43
h258v43zM554 1100q-143 79 -317 192l110 172q75 -55 158 -110l151 -99z" />
    <glyph glyph-name="eacute" unicode="&#xe9;" horiz-adv-x="995" 
d="M376 395v-28q0 -146 180 -146q161 0 303 43l43 -221q-73 -27 -169 -44q-107 -19 -206 -19q-233 0 -344 110q-102 101 -102 295v233q0 181 90 281q107 119 338 119q229 0 326 -126q42 -53 61 -132q16 -67 16 -156v-209h-536zM634 659q0 127 -123 127q-135 0 -135 -127v-43
h258v43zM360 1255q86 55 151 99q83 55 158 110l110 -172q-174 -113 -317 -192z" />
    <glyph glyph-name="ecircumflex" unicode="&#xea;" horiz-adv-x="995" 
d="M376 395v-28q0 -146 180 -146q161 0 303 43l43 -221q-73 -27 -169 -44q-107 -19 -206 -19q-233 0 -344 110q-102 101 -102 295v233q0 181 90 281q107 119 338 119q229 0 326 -126q42 -53 61 -132q16 -67 16 -156v-209h-536zM634 659q0 127 -123 127q-135 0 -135 -127v-43
h258v43zM216 1208q156 120 293 240q137 -120 293 -240l-90 -121q-118 71 -203 134q-85 -63 -203 -134z" />
    <glyph glyph-name="igrave" unicode="&#xec;" horiz-adv-x="561" 
d="M133 0v997h295v-997h-295zM319 1100q-143 79 -317 192l111 172q75 -55 157 -110l152 -99z" />
    <glyph glyph-name="iacute" unicode="&#xed;" horiz-adv-x="561" 
d="M133 0v997h295v-997h-295zM156 1255q86 55 151 99q83 55 158 110l110 -172q-174 -113 -317 -192z" />
    <glyph glyph-name="ograve" unicode="&#xf2;" horiz-adv-x="1064" 
d="M173 104q-92 102 -92 279v231q0 177 92 279q114 125 359 125q244 0 358 -125q92 -102 92 -279v-231q0 -177 -92 -279q-114 -124 -358 -124q-245 0 -359 124zM687 375v248q0 147 -155 147q-156 0 -156 -147v-248q0 -148 156 -148q155 0 155 148zM564 1100
q-143 79 -317 192l110 172q75 -55 158 -110l152 -99z" />
    <glyph glyph-name="oacute" unicode="&#xf3;" horiz-adv-x="1064" 
d="M173 104q-92 102 -92 279v231q0 177 92 279q114 125 359 125q244 0 358 -125q92 -102 92 -279v-231q0 -177 -92 -279q-114 -124 -358 -124q-245 0 -359 124zM687 375v248q0 147 -155 147q-156 0 -156 -147v-248q0 -148 156 -148q155 0 155 148zM392 1255q87 55 152 99
q83 55 158 110l110 -172q-174 -113 -317 -192z" />
    <glyph glyph-name="ocircumflex" unicode="&#xf4;" horiz-adv-x="1064" 
d="M173 104q-92 102 -92 279v231q0 177 92 279q114 125 359 125q244 0 358 -125q92 -102 92 -279v-231q0 -177 -92 -279q-114 -124 -358 -124q-245 0 -359 124zM687 375v248q0 147 -155 147q-156 0 -156 -147v-248q0 -148 156 -148q155 0 155 148zM239 1208q155 120 293 240
q137 -120 292 -240l-90 -121q-118 71 -202 134q-85 -63 -203 -134z" />
    <glyph glyph-name="otilde" unicode="&#xf5;" horiz-adv-x="1064" 
d="M173 104q-92 102 -92 279v231q0 177 92 279q114 125 359 125q244 0 358 -125q92 -102 92 -279v-231q0 -177 -92 -279q-114 -124 -358 -124q-245 0 -359 124zM687 375v248q0 147 -155 147q-156 0 -156 -147v-248q0 -148 156 -148q155 0 155 148zM537 1161q-63 45 -94 45
t-60 -32q-11 -12 -23 -30l-20 -30l-119 92q40 78 90 124q60 54 125 54q69 0 134 -43q72 -47 104 -47q59 0 78 84l139 -63q-56 -197 -217 -197q-76 0 -137 43z" />
    <glyph glyph-name="divide" unicode="&#xf7;" horiz-adv-x="1706" 
 />
    <glyph glyph-name="glyph216" unicode="&#xf9;" horiz-adv-x="1132" 
d="M417 997v-659q0 -72 72 -72q84 0 215 72v659h295v-997h-220l-30 76q-199 -96 -398 -96q-229 0 -229 319v698h295zM601 1100q-143 79 -317 192l110 172q75 -55 158 -110l152 -99z" />
    <glyph glyph-name="glyph217" unicode="&#xfa;" horiz-adv-x="1132" 
d="M417 997v-659q0 -72 72 -72q84 0 215 72v659h295v-997h-220l-30 76q-199 -96 -398 -96q-229 0 -229 319v698h295zM419 1255q87 55 152 99q82 55 157 110l111 -172q-174 -113 -318 -192z" />
    <glyph glyph-name="glyph234" unicode="&#xfd;" horiz-adv-x="1013" 
d="M295 -403l116 403h-94l-307 997h299l203 -706l203 706h299l-441 -1400h-278zM420 1255q86 55 151 99q83 55 158 110l110 -172q-174 -113 -317 -192z" />
    <glyph glyph-name="Abreve" unicode="&#x102;" horiz-adv-x="1284" 
d="M1263 0h-319l-74 266h-457l-74 -266h-319l416 1364h409zM483 522h313l-155 572zM934 1686q-19 -100 -91 -160q-78 -66 -201 -66q-124 0 -202 66q-72 60 -91 160l137 65q37 -135 156 -135q118 0 155 135z" />
    <glyph glyph-name="abreve" unicode="&#x103;" 
d="M667 0l-20 63q-80 -44 -160 -65q-68 -18 -125 -18q-131 0 -199 87q-61 79 -61 216q0 280 297 280h215v76q0 81 -29 107q-34 30 -147 30q-124 0 -270 -28l-39 221q161 49 358 49q252 0 341 -87q81 -79 81 -294v-637h-242zM614 358h-141q-88 0 -88 -71q0 -78 79 -78
q73 0 150 35v114zM793 1304q-20 -100 -91 -160q-79 -66 -202 -66t-202 66q-71 60 -91 160l138 65q37 -135 155 -135q119 0 156 135z" />
    <glyph glyph-name="Ccaron" unicode="&#x10c;" horiz-adv-x="1274" 
 />
    <glyph glyph-name="ccaron" unicode="&#x10d;" horiz-adv-x="922" 
 />
    <glyph glyph-name="Dslash" unicode="&#x110;" horiz-adv-x="1277" 
d="M51 809h135v555h529q235 0 356 -108q104 -94 104 -246v-656q0 -151 -104 -245q-121 -109 -356 -109h-529v565h-135v244zM868 926q0 166 -190 166h-185v-283h181v-244h-181v-293h185q190 0 190 166v488z" />
    <glyph glyph-name="dcroat" unicode="&#x111;" horiz-adv-x="1099" 
d="M671 737q-103 25 -189 25q-106 0 -106 -113v-301q0 -112 106 -112q98 0 189 77v424zM966 1064v-1064h-232l-30 80q-61 -39 -139 -67q-94 -33 -169 -33q-315 0 -315 368v301q0 369 336 369q135 0 254 -29v75h-188v231h188v110l295 41v-151h93l-16 -231h-77z" />
    <glyph glyph-name="Itilde" unicode="&#x128;" horiz-adv-x="593" 
d="M144 0v1364h307v-1364h-307zM317 1511q-62 45 -94 45q-30 0 -59 -32q-11 -11 -23 -30l-20 -30l-119 92q40 78 90 124q59 55 125 55q69 0 133 -43q72 -47 105 -47q59 0 77 84l140 -64q-56 -197 -217 -197q-76 0 -138 43z" />
    <glyph glyph-name="itilde" unicode="&#x129;" horiz-adv-x="561" 
d="M133 0v997h295v-997h-295zM276 1161q-62 45 -94 45q-30 0 -59 -32q-11 -12 -23 -30l-20 -30l-119 92q40 78 90 124q59 54 125 54q69 0 133 -43q72 -47 105 -47q59 0 77 84l140 -63q-56 -197 -217 -197q-76 0 -138 43z" />
    <glyph glyph-name="Utilde" unicode="&#x168;" horiz-adv-x="1273" 
d="M1150 1364v-967q0 -176 -113 -286q-134 -131 -401 -131t-401 131q-113 110 -113 286v967h307v-938q0 -174 207 -174t207 174v938h307zM637 1511q-62 45 -94 45q-30 0 -60 -32q-10 -11 -23 -30l-19 -30l-119 92q40 78 90 124q59 55 125 55q69 0 133 -43q72 -47 104 -47
q60 0 78 84l140 -64q-56 -197 -218 -197q-75 0 -137 43z" />
    <glyph glyph-name="utilde" unicode="&#x169;" horiz-adv-x="1132" 
d="M417 997v-659q0 -72 72 -72q84 0 215 72v659h295v-997h-220l-30 76q-199 -96 -398 -96q-229 0 -229 319v698h295zM588 1161q-63 45 -94 45t-60 -32q-11 -12 -23 -30l-20 -30l-119 92q40 78 90 124q60 54 125 54q69 0 134 -43q72 -47 104 -47q59 0 78 84l139 -63
q-56 -197 -217 -197q-76 0 -137 43z" />
    <glyph glyph-name="Ohorn" unicode="&#x1a0;" horiz-adv-x="1261" 
d="M1159 397q0 -174 -120 -286q-140 -131 -409 -131q-268 0 -408 131q-120 112 -120 286v570q0 174 120 286q140 131 408 131q269 0 409 -131q120 -112 120 -286v-570zM852 940q0 172 -222 172q-221 0 -221 -172v-516q0 -172 221 -172q222 0 222 172v516zM1113 1610v-214
l-128 -232l-94 62l82 187h-69v197h209z" />
    <glyph glyph-name="ohorn" unicode="&#x1a1;" horiz-adv-x="1064" 
d="M173 104q-92 102 -92 279v231q0 177 92 279q114 125 359 125q244 0 358 -125q92 -102 92 -279v-231q0 -177 -92 -279q-114 -124 -358 -124q-245 0 -359 124zM687 375v248q0 147 -155 147q-156 0 -156 -147v-248q0 -148 156 -148q155 0 155 148zM960 1239v-214l-127 -232
l-95 62l83 187h-70v197h209z" />
    <glyph glyph-name="Uhorn" unicode="&#x1af;" horiz-adv-x="1273" 
d="M1150 1364v-967q0 -176 -113 -286q-134 -131 -401 -131t-401 131q-113 110 -113 286v967h307v-938q0 -174 207 -174t207 174v938h307zM1242 1610v-214l-127 -232l-95 62l83 187h-70v197h209z" />
    <glyph glyph-name="uhorn" unicode="&#x1b0;" horiz-adv-x="1132" 
d="M417 997v-659q0 -72 72 -72q84 0 215 72v659h295v-997h-220l-30 76q-199 -96 -398 -96q-229 0 -229 319v698h295zM1091 1239v-214l-127 -232l-95 62l83 187h-70v197h209z" />
    <glyph glyph-name="uni1EA0" unicode="&#x1ea0;" horiz-adv-x="1284" 
d="M1263 0h-319l-74 266h-457l-74 -266h-319l416 1364h409zM483 522h313l-155 572zM525 -388v223h233v-223h-233z" />
    <glyph glyph-name="uni1EA1" unicode="&#x1ea1;" 
d="M667 0l-20 63q-80 -44 -160 -65q-68 -18 -125 -18q-131 0 -199 87q-61 79 -61 216q0 280 297 280h215v76q0 81 -29 107q-34 30 -147 30q-124 0 -270 -28l-39 221q161 49 358 49q252 0 341 -87q81 -79 81 -294v-637h-242zM614 358h-141q-88 0 -88 -71q0 -78 79 -78
q73 0 150 35v114zM462 -388v223h234v-223h-234z" />
    <glyph glyph-name="uni1EA2" unicode="&#x1ea2;" horiz-adv-x="1284" 
d="M1263 0h-319l-74 266h-457l-74 -266h-319l416 1364h409zM483 522h313l-155 572zM522 1562q97 73 117 96q16 20 16 55q0 57 -81 57q-30 0 -68 -4q-32 -4 -82 -13l-22 139q105 22 188 22q126 0 179 -52q45 -45 45 -142q0 -92 -29 -133q-30 -42 -173 -147z" />
    <glyph glyph-name="uni1EA3" unicode="&#x1ea3;" 
d="M667 0l-20 63q-80 -44 -160 -65q-68 -18 -125 -18q-131 0 -199 87q-61 79 -61 216q0 280 297 280h215v76q0 81 -29 107q-34 30 -147 30q-124 0 -270 -28l-39 221q161 49 358 49q252 0 341 -87q81 -79 81 -294v-637h-242zM614 358h-141q-88 0 -88 -71q0 -78 79 -78
q73 0 150 35v114zM410 1165q83 62 97 80q11 12 11 35q0 35 -53 35q-23 0 -52 -3q-25 -3 -74 -12l-20 128q92 19 158 19q102 0 146 -43q38 -38 38 -118q0 -75 -24 -109t-145 -123z" />
    <glyph glyph-name="uni1EA4" unicode="&#x1ea4;" horiz-adv-x="1284" 
d="M1263 0h-319l-74 266h-457l-74 -266h-319l416 1364h409zM483 522h313l-155 572zM386 1915q91 57 147 95q77 51 132 93l110 -172q-116 -82 -286 -172zM823 1458q-98 43 -182 92q-85 -49 -183 -92l-80 127q125 85 263 193q137 -108 262 -193z" />
    <glyph glyph-name="uni1EA5" unicode="&#x1ea5;" 
d="M667 0l-20 63q-80 -44 -160 -65q-68 -18 -125 -18q-131 0 -199 87q-61 79 -61 216q0 280 297 280h215v76q0 81 -29 107q-34 30 -147 30q-124 0 -270 -28l-39 221q161 49 358 49q252 0 341 -87q81 -79 81 -294v-637h-242zM614 358h-141q-88 0 -88 -71q0 -78 79 -78
q73 0 150 35v114zM287 1566q87 55 152 99q82 55 157 110l111 -172q-174 -113 -318 -192zM227 1208q155 120 293 240q137 -120 293 -240l-90 -121q-118 71 -203 134q-85 -63 -203 -134z" />
    <glyph glyph-name="uni1EA6" unicode="&#x1ea6;" horiz-adv-x="1284" 
d="M1263 0h-319l-74 266h-457l-74 -266h-319l416 1364h409zM483 522h313l-155 572zM779 1759q-170 90 -287 172l111 172q54 -42 132 -93l147 -95zM823 1458q-98 43 -182 92q-85 -49 -183 -92l-80 127q125 85 263 193q137 -108 262 -193z" />
    <glyph glyph-name="uni1EA7" unicode="&#x1ea7;" 
d="M667 0l-20 63q-80 -44 -160 -65q-68 -18 -125 -18q-131 0 -199 87q-61 79 -61 216q0 280 297 280h215v76q0 81 -29 107q-34 30 -147 30q-124 0 -270 -28l-39 221q161 49 358 49q252 0 341 -87q81 -79 81 -294v-637h-242zM614 358h-141q-88 0 -88 -71q0 -78 79 -78
q73 0 150 35v114zM690 1391q-144 79 -318 192l111 172q75 -55 158 -110l151 -99zM227 1208q155 120 293 240q137 -120 293 -240l-90 -121q-118 71 -203 134q-85 -63 -203 -134z" />
    <glyph glyph-name="uni1EA8" unicode="&#x1ea8;" horiz-adv-x="1284" 
d="M1263 0h-319l-74 266h-457l-74 -266h-319l416 1364h409zM483 522h313l-155 572zM813 1753q97 73 117 96q16 20 16 55q0 57 -81 57q-30 0 -68 -4q-32 -4 -82 -13l-22 139q105 22 188 22q126 0 179 -52q45 -45 45 -142q0 -92 -29 -133q-30 -42 -173 -147zM823 1458
q-98 43 -182 92q-85 -49 -183 -92l-80 127q125 85 263 193q137 -108 262 -193z" />
    <glyph glyph-name="uni1EA9" unicode="&#x1ea9;" 
d="M667 0l-20 63q-80 -44 -160 -65q-68 -18 -125 -18q-131 0 -199 87q-61 79 -61 216q0 280 297 280h215v76q0 81 -29 107q-34 30 -147 30q-124 0 -270 -28l-39 221q161 49 358 49q252 0 341 -87q81 -79 81 -294v-637h-242zM614 358h-141q-88 0 -88 -71q0 -78 79 -78
q73 0 150 35v114zM661 1436q83 62 97 80q11 12 11 35q0 35 -53 35q-23 0 -52 -3q-25 -3 -74 -12l-20 128q92 19 158 19q102 0 146 -43q38 -38 38 -118q0 -75 -24 -109t-145 -123zM227 1208q155 120 293 240q137 -120 293 -240l-90 -121q-118 71 -203 134q-85 -63 -203 -134z
" />
    <glyph glyph-name="uni1EAA" unicode="&#x1eaa;" horiz-adv-x="1284" 
d="M1263 0h-319l-74 266h-457l-74 -266h-319l416 1364h409zM483 522h313l-155 572zM719 1812q-62 45 -94 45q-30 0 -60 -32q-10 -11 -23 -30l-19 -30l-119 92q40 78 90 124q59 55 125 55q69 0 133 -43q72 -47 104 -47q60 0 78 84l140 -64q-56 -197 -218 -197q-75 0 -137 43z
M823 1458q-98 43 -182 92q-85 -49 -183 -92l-80 127q125 85 263 193q137 -108 262 -193z" />
    <glyph glyph-name="uni1EAB" unicode="&#x1eab;" 
d="M667 0l-20 63q-80 -44 -160 -65q-68 -18 -125 -18q-131 0 -199 87q-61 79 -61 216q0 280 297 280h215v76q0 81 -29 107q-34 30 -147 30q-124 0 -270 -28l-39 221q161 49 358 49q252 0 341 -87q81 -79 81 -294v-637h-242zM614 358h-141q-88 0 -88 -71q0 -78 79 -78
q73 0 150 35v114zM588 1472q-62 45 -94 45q-30 0 -60 -32q-10 -12 -23 -30l-19 -30l-119 92q40 78 90 124q59 54 125 54q69 0 133 -43q72 -47 104 -47q60 0 78 84l140 -63q-56 -197 -218 -197q-75 0 -137 43zM227 1208q155 120 293 240q137 -120 293 -240l-90 -121
q-118 71 -203 134q-85 -63 -203 -134z" />
    <glyph glyph-name="uni1EAC" unicode="&#x1eac;" horiz-adv-x="1284" 
d="M1263 0h-319l-74 266h-457l-74 -266h-319l416 1364h409zM483 522h313l-155 572zM525 -388v223h233v-223h-233zM823 1458q-98 43 -182 92q-85 -49 -183 -92l-80 127q125 85 263 193q137 -108 262 -193z" />
    <glyph glyph-name="uni1EAD" unicode="&#x1ead;" 
d="M667 0l-20 63q-80 -44 -160 -65q-68 -18 -125 -18q-131 0 -199 87q-61 79 -61 216q0 280 297 280h215v76q0 81 -29 107q-34 30 -147 30q-124 0 -270 -28l-39 221q161 49 358 49q252 0 341 -87q81 -79 81 -294v-637h-242zM614 358h-141q-88 0 -88 -71q0 -78 79 -78
q73 0 150 35v114zM462 -388v223h234v-223h-234zM227 1208q155 120 293 240q137 -120 293 -240l-90 -121q-118 71 -203 134q-85 -63 -203 -134z" />
    <glyph glyph-name="uni1EAE" unicode="&#x1eae;" horiz-adv-x="1284" 
d="M1263 0h-319l-74 266h-457l-74 -266h-319l416 1364h409zM483 522h313l-155 572zM537 1905q91 57 147 95q77 51 132 93l110 -172q-116 -82 -286 -172zM935 1686q-20 -100 -91 -160q-79 -66 -202 -66t-202 66q-71 60 -91 160l137 65q38 -135 156 -135q119 0 156 135z" />
    <glyph glyph-name="uni1EAF" unicode="&#x1eaf;" 
d="M667 0l-20 63q-80 -44 -160 -65q-68 -18 -125 -18q-131 0 -199 87q-61 79 -61 216q0 280 297 280h215v76q0 81 -29 107q-34 30 -147 30q-124 0 -270 -28l-39 221q161 49 358 49q252 0 341 -87q81 -79 81 -294v-637h-242zM614 358h-141q-88 0 -88 -71q0 -78 79 -78
q73 0 150 35v114zM337 1526q87 55 152 99q82 55 157 110l111 -172q-174 -113 -318 -192zM793 1304q-20 -100 -91 -160q-79 -66 -202 -66t-202 66q-71 60 -91 160l138 65q37 -135 155 -135q119 0 156 135z" />
    <glyph glyph-name="uni1EB0" unicode="&#x1eb0;" horiz-adv-x="1284" 
d="M1263 0h-319l-74 266h-457l-74 -266h-319l416 1364h409zM483 522h313l-155 572zM659 1729q-170 90 -287 172l111 172q54 -42 132 -93l147 -95zM935 1686q-20 -100 -91 -160q-79 -66 -202 -66t-202 66q-71 60 -91 160l137 65q38 -135 156 -135q119 0 156 135z" />
    <glyph glyph-name="uni1EB1" unicode="&#x1eb1;" 
d="M667 0l-20 63q-80 -44 -160 -65q-68 -18 -125 -18q-131 0 -199 87q-61 79 -61 216q0 280 297 280h215v76q0 81 -29 107q-34 30 -147 30q-124 0 -270 -28l-39 221q161 49 358 49q252 0 341 -87q81 -79 81 -294v-637h-242zM614 358h-141q-88 0 -88 -71q0 -78 79 -78
q73 0 150 35v114zM540 1351q-144 79 -318 192l111 172q75 -55 158 -110l151 -99zM793 1304q-20 -100 -91 -160q-79 -66 -202 -66t-202 66q-71 60 -91 160l138 65q37 -135 155 -135q119 0 156 135z" />
    <glyph glyph-name="uni1EB2" unicode="&#x1eb2;" horiz-adv-x="1284" 
d="M1263 0h-319l-74 266h-457l-74 -266h-319l416 1364h409zM483 522h313l-155 572zM551 1833q97 73 117 96q16 20 16 55q0 57 -81 57q-30 0 -68 -4q-32 -4 -82 -13l-22 139q105 22 188 22q126 0 179 -52q45 -45 45 -142q0 -92 -29 -133q-30 -42 -173 -147zM935 1686
q-20 -100 -91 -160q-79 -66 -202 -66t-202 66q-71 60 -91 160l137 65q38 -135 156 -135q119 0 156 135z" />
    <glyph glyph-name="uni1EB3" unicode="&#x1eb3;" 
d="M667 0l-20 63q-80 -44 -160 -65q-68 -18 -125 -18q-131 0 -199 87q-61 79 -61 216q0 280 297 280h215v76q0 81 -29 107q-34 30 -147 30q-124 0 -270 -28l-39 221q161 49 358 49q252 0 341 -87q81 -79 81 -294v-637h-242zM614 358h-141q-88 0 -88 -71q0 -78 79 -78
q73 0 150 35v114zM460 1436q83 62 97 80q11 12 11 35q0 35 -53 35q-23 0 -52 -3q-25 -3 -74 -12l-20 128q92 19 158 19q102 0 146 -43q38 -38 38 -118q0 -75 -24 -109t-145 -123zM793 1304q-20 -100 -91 -160q-79 -66 -202 -66t-202 66q-71 60 -91 160l138 65
q37 -135 155 -135q119 0 156 135z" />
    <glyph glyph-name="uni1EB4" unicode="&#x1eb4;" horiz-adv-x="1284" 
d="M1263 0h-319l-74 266h-457l-74 -266h-319l416 1364h409zM483 522h313l-155 572zM749 1842q-62 45 -94 45q-30 0 -60 -32q-10 -11 -23 -30l-19 -30l-119 92q40 78 90 124q59 55 125 55q69 0 133 -43q72 -47 104 -47q60 0 78 84l140 -64q-56 -197 -218 -197q-75 0 -137 43z
M935 1686q-20 -100 -91 -160q-79 -66 -202 -66t-202 66q-71 60 -91 160l137 65q38 -135 156 -135q119 0 156 135z" />
    <glyph glyph-name="uni1EB5" unicode="&#x1eb5;" 
d="M667 0l-20 63q-80 -44 -160 -65q-68 -18 -125 -18q-131 0 -199 87q-61 79 -61 216q0 280 297 280h215v76q0 81 -29 107q-34 30 -147 30q-124 0 -270 -28l-39 221q161 49 358 49q252 0 341 -87q81 -79 81 -294v-637h-242zM614 358h-141q-88 0 -88 -71q0 -78 79 -78
q73 0 150 35v114zM568 1442q-62 45 -94 45q-30 0 -60 -32q-10 -12 -23 -30l-19 -30l-119 92q40 78 90 124q59 54 125 54q69 0 133 -43q72 -47 104 -47q60 0 78 84l140 -63q-56 -197 -218 -197q-75 0 -137 43zM793 1304q-20 -100 -91 -160q-79 -66 -202 -66t-202 66
q-71 60 -91 160l138 65q37 -135 155 -135q119 0 156 135z" />
    <glyph glyph-name="uni1EB6" unicode="&#x1eb6;" horiz-adv-x="1284" 
d="M1263 0h-319l-74 266h-457l-74 -266h-319l416 1364h409zM483 522h313l-155 572zM525 -388v223h233v-223h-233zM935 1686q-20 -100 -91 -160q-79 -66 -202 -66t-202 66q-71 60 -91 160l137 65q38 -135 156 -135q119 0 156 135z" />
    <glyph glyph-name="uni1EB7" unicode="&#x1eb7;" 
d="M667 0l-20 63q-80 -44 -160 -65q-68 -18 -125 -18q-131 0 -199 87q-61 79 -61 216q0 280 297 280h215v76q0 81 -29 107q-34 30 -147 30q-124 0 -270 -28l-39 221q161 49 358 49q252 0 341 -87q81 -79 81 -294v-637h-242zM614 358h-141q-88 0 -88 -71q0 -78 79 -78
q73 0 150 35v114zM462 -388v223h234v-223h-234zM793 1304q-20 -100 -91 -160q-79 -66 -202 -66t-202 66q-71 60 -91 160l138 65q37 -135 155 -135q119 0 156 135z" />
    <glyph glyph-name="uni1EB8" unicode="&#x1eb8;" horiz-adv-x="1093" 
d="M133 0v1364h858v-272h-551v-250h508v-273h-508v-297h551v-272h-858zM445 -388v223h234v-223h-234z" />
    <glyph glyph-name="uni1EB9" unicode="&#x1eb9;" horiz-adv-x="995" 
d="M376 395v-28q0 -146 180 -146q161 0 303 43l43 -221q-73 -27 -169 -44q-107 -19 -206 -19q-233 0 -344 110q-102 101 -102 295v233q0 181 90 281q107 119 338 119q229 0 326 -126q42 -53 61 -132q16 -67 16 -156v-209h-536zM634 659q0 127 -123 127q-135 0 -135 -127v-43
h258v43zM392 -388v223h233v-223h-233z" />
    <glyph glyph-name="uni1EBA" unicode="&#x1eba;" horiz-adv-x="1093" 
d="M133 0v1364h858v-272h-551v-250h508v-273h-508v-297h551v-272h-858zM471 1562q97 73 117 96q16 20 16 55q0 57 -81 57q-30 0 -68 -4q-32 -4 -82 -13l-22 139q105 22 188 22q126 0 179 -52q45 -45 45 -142q0 -92 -29 -133q-30 -42 -173 -147z" />
    <glyph glyph-name="uni1EBB" unicode="&#x1ebb;" horiz-adv-x="995" 
d="M376 395v-28q0 -146 180 -146q161 0 303 43l43 -221q-73 -27 -169 -44q-107 -19 -206 -19q-233 0 -344 110q-102 101 -102 295v233q0 181 90 281q107 119 338 119q229 0 326 -126q42 -53 61 -132q16 -67 16 -156v-209h-536zM634 659q0 127 -123 127q-135 0 -135 -127v-43
h258v43zM409 1165q83 62 98 80q10 12 10 35q0 35 -53 35q-23 0 -52 -3q-25 -3 -73 -12l-21 128q93 19 158 19q103 0 147 -43q38 -38 38 -118q0 -75 -25 -109q-24 -34 -145 -123z" />
    <glyph glyph-name="uni1EBC" unicode="&#x1ebc;" horiz-adv-x="1093" 
d="M133 0v1364h858v-272h-551v-250h508v-273h-508v-297h551v-272h-858zM558 1511q-62 45 -94 45q-31 0 -60 -32q-10 -11 -23 -30l-19 -30l-119 92q40 78 90 124q59 55 125 55q68 0 133 -43q72 -47 104 -47q60 0 78 84l139 -64q-55 -197 -217 -197q-75 0 -137 43z" />
    <glyph glyph-name="uni1EBD" unicode="&#x1ebd;" horiz-adv-x="995" 
d="M376 395v-28q0 -146 180 -146q161 0 303 43l43 -221q-73 -27 -169 -44q-107 -19 -206 -19q-233 0 -344 110q-102 101 -102 295v233q0 181 90 281q107 119 338 119q229 0 326 -126q42 -53 61 -132q16 -67 16 -156v-209h-536zM634 659q0 127 -123 127q-135 0 -135 -127v-43
h258v43zM497 1161q-63 45 -94 45t-60 -32q-11 -12 -23 -30l-20 -30l-119 92q40 78 90 124q60 54 125 54q69 0 134 -43q72 -47 104 -47q59 0 78 84l139 -63q-56 -197 -217 -197q-76 0 -137 43z" />
    <glyph glyph-name="uni1EBE" unicode="&#x1ebe;" horiz-adv-x="1093" 
d="M133 0v1364h858v-272h-551v-250h508v-273h-508v-297h551v-272h-858zM360 1905q91 57 147 95q77 51 131 93l111 -172q-116 -82 -287 -172zM766 1458q-97 43 -182 92q-85 -49 -183 -92l-79 127q124 85 262 193q138 -108 262 -193z" />
    <glyph glyph-name="uni1EBF" unicode="&#x1ebf;" horiz-adv-x="995" 
d="M376 395v-28q0 -146 180 -146q161 0 303 43l43 -221q-73 -27 -169 -44q-107 -19 -206 -19q-233 0 -344 110q-102 101 -102 295v233q0 181 90 281q107 119 338 119q229 0 326 -126q42 -53 61 -132q16 -67 16 -156v-209h-536zM634 659q0 127 -123 127q-135 0 -135 -127v-43
h258v43zM260 1556q86 55 151 99q83 55 158 110l110 -172q-174 -113 -317 -192zM216 1208q156 120 293 240q137 -120 293 -240l-90 -121q-118 71 -203 134q-85 -63 -203 -134z" />
    <glyph glyph-name="uni1EC0" unicode="&#x1ec0;" horiz-adv-x="1093" 
d="M133 0v1364h858v-272h-551v-250h508v-273h-508v-297h551v-272h-858zM742 1739q-170 90 -286 172l110 172q54 -42 132 -93l147 -95zM766 1458q-97 43 -182 92q-85 -49 -183 -92l-79 127q124 85 262 193q138 -108 262 -193z" />
    <glyph glyph-name="uni1EC1" unicode="&#x1ec1;" horiz-adv-x="995" 
d="M376 395v-28q0 -146 180 -146q161 0 303 43l43 -221q-73 -27 -169 -44q-107 -19 -206 -19q-233 0 -344 110q-102 101 -102 295v233q0 181 90 281q107 119 338 119q229 0 326 -126q42 -53 61 -132q16 -67 16 -156v-209h-536zM634 659q0 127 -123 127q-135 0 -135 -127v-43
h258v43zM695 1401q-143 79 -317 192l110 172q75 -55 158 -110l151 -99zM216 1208q156 120 293 240q137 -120 293 -240l-90 -121q-118 71 -203 134q-85 -63 -203 -134z" />
    <glyph glyph-name="uni1EC2" unicode="&#x1ec2;" horiz-adv-x="1093" 
d="M133 0v1364h858v-272h-551v-250h508v-273h-508v-297h551v-272h-858zM702 1803q97 73 117 96q16 20 16 55q0 57 -81 57q-30 0 -68 -4q-32 -4 -82 -13l-22 139q105 22 188 22q126 0 179 -52q45 -45 45 -142q0 -92 -29 -133q-30 -42 -173 -147zM766 1458q-97 43 -182 92
q-85 -49 -183 -92l-79 127q124 85 262 193q138 -108 262 -193z" />
    <glyph glyph-name="uni1EC3" unicode="&#x1ec3;" horiz-adv-x="995" 
d="M376 395v-28q0 -146 180 -146q161 0 303 43l43 -221q-73 -27 -169 -44q-107 -19 -206 -19q-233 0 -344 110q-102 101 -102 295v233q0 181 90 281q107 119 338 119q229 0 326 -126q42 -53 61 -132q16 -67 16 -156v-209h-536zM634 659q0 127 -123 127q-135 0 -135 -127v-43
h258v43zM660 1436q83 62 98 80q10 12 10 35q0 35 -53 35q-23 0 -52 -3q-25 -3 -73 -12l-21 128q93 19 158 19q103 0 147 -43q38 -38 38 -118q0 -75 -25 -109q-24 -34 -145 -123zM216 1208q156 120 293 240q137 -120 293 -240l-90 -121q-118 71 -203 134q-85 -63 -203 -134z
" />
    <glyph glyph-name="uni1EC4" unicode="&#x1ec4;" horiz-adv-x="1093" 
d="M133 0v1364h858v-272h-551v-250h508v-273h-508v-297h551v-272h-858zM648 1792q-62 45 -94 45q-31 0 -60 -32q-10 -11 -23 -30l-19 -30l-119 92q40 78 90 124q59 55 125 55q68 0 133 -43q72 -47 104 -47q60 0 78 84l139 -64q-55 -197 -217 -197q-75 0 -137 43zM766 1458
q-97 43 -182 92q-85 -49 -183 -92l-79 127q124 85 262 193q138 -108 262 -193z" />
    <glyph glyph-name="uni1EC5" unicode="&#x1ec5;" horiz-adv-x="995" 
d="M376 395v-28q0 -146 180 -146q161 0 303 43l43 -221q-73 -27 -169 -44q-107 -19 -206 -19q-233 0 -344 110q-102 101 -102 295v233q0 181 90 281q107 119 338 119q229 0 326 -126q42 -53 61 -132q16 -67 16 -156v-209h-536zM634 659q0 127 -123 127q-135 0 -135 -127v-43
h258v43zM567 1462q-63 45 -94 45t-60 -32q-11 -12 -23 -30l-20 -30l-119 92q40 78 90 124q60 54 125 54q69 0 134 -43q72 -47 104 -47q59 0 78 84l139 -63q-56 -197 -217 -197q-76 0 -137 43zM216 1208q156 120 293 240q137 -120 293 -240l-90 -121q-118 71 -203 134
q-85 -63 -203 -134z" />
    <glyph glyph-name="uni1EC6" unicode="&#x1ec6;" horiz-adv-x="1093" 
d="M133 0v1364h858v-272h-551v-250h508v-273h-508v-297h551v-272h-858zM445 -388v223h234v-223h-234zM766 1458q-97 43 -182 92q-85 -49 -183 -92l-79 127q124 85 262 193q138 -108 262 -193z" />
    <glyph glyph-name="uni1EC7" unicode="&#x1ec7;" horiz-adv-x="995" 
d="M376 395v-28q0 -146 180 -146q161 0 303 43l43 -221q-73 -27 -169 -44q-107 -19 -206 -19q-233 0 -344 110q-102 101 -102 295v233q0 181 90 281q107 119 338 119q229 0 326 -126q42 -53 61 -132q16 -67 16 -156v-209h-536zM634 659q0 127 -123 127q-135 0 -135 -127v-43
h258v43zM392 -388v223h233v-223h-233zM216 1208q156 120 293 240q137 -120 293 -240l-90 -121q-118 71 -203 134q-85 -63 -203 -134z" />
    <glyph glyph-name="uni1EC8" unicode="&#x1ec8;" horiz-adv-x="593" 
d="M144 0v1364h307v-1364h-307zM210 1562q98 73 117 96q16 20 16 55q0 57 -80 57q-30 0 -68 -4q-33 -4 -83 -13l-22 139q105 22 188 22q126 0 179 -52q45 -45 45 -142q0 -92 -29 -133q-29 -42 -173 -147z" />
    <glyph glyph-name="uni1EC9" unicode="&#x1ec9;" horiz-adv-x="561" 
d="M133 0v997h295v-997h-295zM199 1165q83 62 97 80q11 12 11 35q0 35 -53 35q-23 0 -52 -3q-25 -3 -73 -12l-21 128q93 19 158 19q102 0 146 -43q39 -38 39 -118q0 -75 -25 -109q-24 -34 -145 -123z" />
    <glyph glyph-name="uni1ECA" unicode="&#x1eca;" horiz-adv-x="593" 
d="M143 0v1364h307v-1364h-307zM180 -388v223h233v-223h-233z" />
    <glyph glyph-name="uni1ECB" unicode="&#x1ecb;" horiz-adv-x="561" 
d="M133 1122v314h295v-314h-295zM133 0v997h295v-997h-295zM164 -388v223h233v-223h-233z" />
    <glyph glyph-name="uni1ECC" unicode="&#x1ecc;" horiz-adv-x="1261" 
d="M1159 397q0 -174 -120 -286q-140 -131 -409 -131q-268 0 -408 131q-120 112 -120 286v570q0 174 120 286q140 131 408 131q269 0 409 -131q120 -112 120 -286v-570zM852 940q0 172 -222 172q-221 0 -221 -172v-516q0 -172 221 -172q222 0 222 172v516zM514 -388v223h233
v-223h-233z" />
    <glyph glyph-name="uni1ECD" unicode="&#x1ecd;" horiz-adv-x="1064" 
d="M173 104q-92 102 -92 279v231q0 177 92 279q114 125 359 125q244 0 358 -125q92 -102 92 -279v-231q0 -177 -92 -279q-114 -124 -358 -124q-245 0 -359 124zM687 375v248q0 147 -155 147q-156 0 -156 -147v-248q0 -148 156 -148q155 0 155 148zM415 -388v223h233v-223
h-233z" />
    <glyph glyph-name="uni1ECE" unicode="&#x1ece;" horiz-adv-x="1261" 
d="M1159 397q0 -174 -120 -286q-140 -131 -409 -131q-268 0 -408 131q-120 112 -120 286v570q0 174 120 286q140 131 408 131q269 0 409 -131q120 -112 120 -286v-570zM852 940q0 172 -222 172q-221 0 -221 -172v-516q0 -172 221 -172q222 0 222 172v516zM541 1562
q97 73 117 96q16 20 16 55q0 57 -81 57q-30 0 -68 -4q-32 -4 -82 -13l-22 139q105 22 188 22q126 0 178 -52q46 -45 46 -142q0 -92 -29 -133q-30 -42 -173 -147z" />
    <glyph glyph-name="uni1ECF" unicode="&#x1ecf;" horiz-adv-x="1064" 
d="M173 104q-92 102 -92 279v231q0 177 92 279q114 125 359 125q244 0 358 -125q92 -102 92 -279v-231q0 -177 -92 -279q-114 -124 -358 -124q-245 0 -359 124zM687 375v248q0 147 -155 147q-156 0 -156 -147v-248q0 -148 156 -148q155 0 155 148zM469 1165q83 62 98 80
q10 12 10 35q0 35 -53 35q-23 0 -52 -3q-25 -3 -73 -12l-21 128q93 19 158 19q103 0 147 -43q38 -38 38 -118q0 -75 -25 -109q-24 -34 -145 -123z" />
    <glyph glyph-name="uni1ED0" unicode="&#x1ed0;" horiz-adv-x="1261" 
d="M1159 397q0 -174 -120 -286q-140 -131 -409 -131q-268 0 -408 131q-120 112 -120 286v570q0 174 120 286q140 131 408 131q269 0 409 -131q120 -112 120 -286v-570zM852 940q0 172 -222 172q-221 0 -221 -172v-516q0 -172 221 -172q222 0 222 172v516zM412 1915
q90 57 147 95q77 51 131 93l111 -172q-116 -82 -287 -172zM813 1458q-98 43 -183 92q-85 -49 -182 -92l-80 127q124 85 262 193q138 -108 263 -193z" />
    <glyph glyph-name="uni1ED1" unicode="&#x1ed1;" horiz-adv-x="1064" 
d="M173 104q-92 102 -92 279v231q0 177 92 279q114 125 359 125q244 0 358 -125q92 -102 92 -279v-231q0 -177 -92 -279q-114 -124 -358 -124q-245 0 -359 124zM687 375v248q0 147 -155 147q-156 0 -156 -147v-248q0 -148 156 -148q155 0 155 148zM291 1566q87 55 152 99
q83 55 158 110l110 -172q-174 -113 -317 -192zM239 1208q155 120 293 240q137 -120 292 -240l-90 -121q-118 71 -202 134q-85 -63 -203 -134z" />
    <glyph glyph-name="uni1ED2" unicode="&#x1ed2;" horiz-adv-x="1261" 
d="M1159 397q0 -174 -120 -286q-140 -131 -409 -131q-268 0 -408 131q-120 112 -120 286v570q0 174 120 286q140 131 408 131q269 0 409 -131q120 -112 120 -286v-570zM852 940q0 172 -222 172q-221 0 -221 -172v-516q0 -172 221 -172q222 0 222 172v516zM793 1739
q-171 90 -287 172l111 172q54 -42 131 -93l147 -95zM813 1458q-98 43 -183 92q-85 -49 -182 -92l-80 127q124 85 262 193q138 -108 263 -193z" />
    <glyph glyph-name="uni1ED3" unicode="&#x1ed3;" horiz-adv-x="1064" 
d="M173 104q-92 102 -92 279v231q0 177 92 279q114 125 359 125q244 0 358 -125q92 -102 92 -279v-231q0 -177 -92 -279q-114 -124 -358 -124q-245 0 -359 124zM687 375v248q0 147 -155 147q-156 0 -156 -147v-248q0 -148 156 -148q155 0 155 148zM715 1391
q-143 79 -317 192l110 172q75 -55 158 -110l152 -99zM239 1208q155 120 293 240q137 -120 292 -240l-90 -121q-118 71 -202 134q-85 -63 -203 -134z" />
    <glyph glyph-name="uni1ED4" unicode="&#x1ed4;" horiz-adv-x="1261" 
d="M1159 397q0 -174 -120 -286q-140 -131 -409 -131q-268 0 -408 131q-120 112 -120 286v570q0 174 120 286q140 131 408 131q269 0 409 -131q120 -112 120 -286v-570zM852 940q0 172 -222 172q-221 0 -221 -172v-516q0 -172 221 -172q222 0 222 172v516zM741 1813
q97 73 117 96q16 20 16 55q0 57 -81 57q-30 0 -68 -4q-32 -4 -82 -13l-22 139q105 22 188 22q126 0 178 -52q46 -45 46 -142q0 -92 -29 -133q-30 -42 -173 -147zM813 1458q-98 43 -183 92q-85 -49 -182 -92l-80 127q124 85 262 193q138 -108 263 -193z" />
    <glyph glyph-name="uni1ED5" unicode="&#x1ed5;" horiz-adv-x="1064" 
d="M173 104q-92 102 -92 279v231q0 177 92 279q114 125 359 125q244 0 358 -125q92 -102 92 -279v-231q0 -177 -92 -279q-114 -124 -358 -124q-245 0 -359 124zM687 375v248q0 147 -155 147q-156 0 -156 -147v-248q0 -148 156 -148q155 0 155 148zM690 1426q83 62 98 80
q10 12 10 35q0 35 -53 35q-23 0 -52 -3q-25 -3 -73 -12l-21 128q93 19 158 19q103 0 147 -43q38 -38 38 -118q0 -75 -25 -109q-24 -34 -145 -123zM239 1208q155 120 293 240q137 -120 292 -240l-90 -121q-118 71 -202 134q-85 -63 -203 -134z" />
    <glyph glyph-name="uni1ED6" unicode="&#x1ed6;" horiz-adv-x="1261" 
d="M1159 397q0 -174 -120 -286q-140 -131 -409 -131q-268 0 -408 131q-120 112 -120 286v570q0 174 120 286q140 131 408 131q269 0 409 -131q120 -112 120 -286v-570zM852 940q0 172 -222 172q-221 0 -221 -172v-516q0 -172 221 -172q222 0 222 172v516zM674 1822
q-62 45 -94 45q-30 0 -60 -32q-10 -11 -23 -30l-19 -30l-119 92q40 78 90 124q59 55 125 55q68 0 133 -43q72 -47 104 -47q60 0 78 84l140 -64q-56 -197 -218 -197q-75 0 -137 43zM813 1458q-98 43 -183 92q-85 -49 -182 -92l-80 127q124 85 262 193q138 -108 263 -193z" />
    <glyph glyph-name="uni1ED7" unicode="&#x1ed7;" horiz-adv-x="1064" 
d="M173 104q-92 102 -92 279v231q0 177 92 279q114 125 359 125q244 0 358 -125q92 -102 92 -279v-231q0 -177 -92 -279q-114 -124 -358 -124q-245 0 -359 124zM687 375v248q0 147 -155 147q-156 0 -156 -147v-248q0 -148 156 -148q155 0 155 148zM587 1482q-63 45 -94 45
t-60 -32q-11 -12 -23 -30l-20 -30l-119 92q40 78 90 124q60 54 125 54q69 0 134 -43q72 -47 104 -47q59 0 78 84l139 -63q-56 -197 -217 -197q-76 0 -137 43zM239 1208q155 120 293 240q137 -120 292 -240l-90 -121q-118 71 -202 134q-85 -63 -203 -134z" />
    <glyph glyph-name="uni1ED8" unicode="&#x1ed8;" horiz-adv-x="1261" 
d="M1159 397q0 -174 -120 -286q-140 -131 -409 -131q-268 0 -408 131q-120 112 -120 286v570q0 174 120 286q140 131 408 131q269 0 409 -131q120 -112 120 -286v-570zM852 940q0 172 -222 172q-221 0 -221 -172v-516q0 -172 221 -172q222 0 222 172v516zM514 -388v223h233
v-223h-233zM813 1458q-98 43 -183 92q-85 -49 -182 -92l-80 127q124 85 262 193q138 -108 263 -193z" />
    <glyph glyph-name="uni1ED9" unicode="&#x1ed9;" horiz-adv-x="1064" 
d="M173 104q-92 102 -92 279v231q0 177 92 279q114 125 359 125q244 0 358 -125q92 -102 92 -279v-231q0 -177 -92 -279q-114 -124 -358 -124q-245 0 -359 124zM687 375v248q0 147 -155 147q-156 0 -156 -147v-248q0 -148 156 -148q155 0 155 148zM415 -388v223h233v-223
h-233zM239 1208q155 120 293 240q137 -120 292 -240l-90 -121q-118 71 -202 134q-85 -63 -203 -134z" />
    <glyph glyph-name="uni1EDA" unicode="&#x1eda;" horiz-adv-x="1261" 
d="M852 940q0 172 -222 172q-221 0 -221 -172v-516q0 -172 221 -172q222 0 222 172v516zM512 1685q90 57 147 95q77 51 131 93l111 -172q-116 -82 -287 -172zM1036 1256l3 -3q120 -112 120 -286v-570q0 -174 -120 -286q-140 -131 -409 -131q-268 0 -408 131
q-120 112 -120 286v570q0 174 120 286q140 131 408 131q181 0 304 -60l39 89h-69v197h209v-214z" />
    <glyph glyph-name="uni1EDB" unicode="&#x1edb;" horiz-adv-x="1064" 
d="M687 375v248q0 147 -156 147q-155 0 -155 -147v-248q0 -148 155 -148q156 0 156 148zM392 1255q87 55 152 99q83 55 157 110l111 -172q-174 -113 -317 -192zM889 895q0 -1 1 -2q92 -102 92 -279v-231q0 -177 -92 -279q-114 -124 -359 -124q-244 0 -358 124
q-92 102 -92 279v231q0 177 92 279q114 125 358 125q155 0 257 -50l33 74h-70v197h209v-214z" />
    <glyph glyph-name="uni1EDC" unicode="&#x1edc;" horiz-adv-x="1261" 
d="M852 940q0 172 -222 172q-221 0 -221 -172v-516q0 -172 221 -172q222 0 222 172v516zM643 1448q-171 90 -287 172l111 172q54 -42 131 -93l147 -95zM1036 1256l3 -3q120 -112 120 -286v-570q0 -174 -120 -286q-140 -131 -409 -131q-268 0 -408 131q-120 112 -120 286v570
q0 174 120 286q140 131 408 131q181 0 304 -60l39 89h-69v197h209v-214z" />
    <glyph glyph-name="uni1EDD" unicode="&#x1edd;" horiz-adv-x="1064" 
d="M687 375v248q0 147 -156 147q-155 0 -155 -147v-248q0 -148 155 -148q156 0 156 148zM564 1100q-143 79 -317 192l110 172q75 -55 158 -110l152 -99zM889 895q0 -1 1 -2q92 -102 92 -279v-231q0 -177 -92 -279q-114 -124 -359 -124q-244 0 -358 124q-92 102 -92 279v231
q0 177 92 279q114 125 358 125q155 0 257 -50l33 74h-70v197h209v-214z" />
    <glyph glyph-name="uni1EDE" unicode="&#x1ede;" horiz-adv-x="1261" 
d="M852 940q0 172 -222 172q-221 0 -221 -172v-516q0 -172 221 -172q222 0 222 172v516zM541 1562q97 73 117 96q16 20 16 55q0 57 -81 57q-30 0 -68 -4q-32 -4 -82 -13l-22 139q105 22 188 22q126 0 178 -52q46 -45 46 -142q0 -92 -29 -133q-30 -42 -173 -147zM1036 1256
l3 -3q120 -112 120 -286v-570q0 -174 -120 -286q-140 -131 -409 -131q-268 0 -408 131q-120 112 -120 286v570q0 174 120 286q140 131 408 131q181 0 304 -60l39 89h-69v197h209v-214z" />
    <glyph glyph-name="uni1EDF" unicode="&#x1edf;" horiz-adv-x="1064" 
d="M687 375v248q0 147 -156 147q-155 0 -155 -147v-248q0 -148 155 -148q156 0 156 148zM469 1165q83 62 98 80q10 12 10 35q0 35 -53 35q-23 0 -52 -3q-25 -3 -73 -12l-21 128q93 19 158 19q103 0 146 -43q39 -38 39 -118q0 -75 -25 -109q-24 -34 -145 -123zM889 895
q0 -1 1 -2q92 -102 92 -279v-231q0 -177 -92 -279q-114 -124 -359 -124q-244 0 -358 124q-92 102 -92 279v231q0 177 92 279q114 125 358 125q155 0 257 -50l33 74h-70v197h209v-214z" />
    <glyph glyph-name="uni1EE0" unicode="&#x1ee0;" horiz-adv-x="1261" 
d="M852 940q0 172 -222 172q-221 0 -221 -172v-516q0 -172 221 -172q222 0 222 172v516zM634 1651q-62 45 -94 45q-30 0 -60 -32q-10 -11 -23 -30l-19 -30l-119 92q40 78 90 124q59 55 125 55q68 0 133 -43q72 -47 104 -47q60 0 78 84l140 -64q-56 -197 -218 -197
q-75 0 -137 43zM1036 1256l3 -3q120 -112 120 -286v-570q0 -174 -120 -286q-140 -131 -409 -131q-268 0 -408 131q-120 112 -120 286v570q0 174 120 286q140 131 408 131q181 0 304 -60l39 89h-69v197h209v-214z" />
    <glyph glyph-name="uni1EE1" unicode="&#x1ee1;" horiz-adv-x="1064" 
d="M687 375v248q0 147 -156 147q-155 0 -155 -147v-248q0 -148 155 -148q156 0 156 148zM517 1281q-63 45 -95 45q-30 0 -59 -32q-11 -12 -23 -30l-20 -30l-119 92q40 78 90 124q60 54 125 54q69 0 133 -43q73 -47 105 -47q59 0 78 84l139 -63q-56 -197 -217 -197
q-76 0 -137 43zM889 895q0 -1 1 -2q92 -102 92 -279v-231q0 -177 -92 -279q-114 -124 -359 -124q-244 0 -358 124q-92 102 -92 279v231q0 177 92 279q114 125 358 125q155 0 257 -50l33 74h-70v197h209v-214z" />
    <glyph glyph-name="uni1EE2" unicode="&#x1ee2;" horiz-adv-x="1261" 
d="M852 940q0 172 -222 172q-221 0 -221 -172v-516q0 -172 221 -172q222 0 222 172v516zM514 -388v223h233v-223h-233zM1036 1256l3 -3q120 -112 120 -286v-570q0 -174 -120 -286q-140 -131 -409 -131q-268 0 -408 131q-120 112 -120 286v570q0 174 120 286q140 131 408 131
q181 0 304 -60l39 89h-69v197h209v-214z" />
    <glyph glyph-name="uni1EE3" unicode="&#x1ee3;" horiz-adv-x="1064" 
d="M687 375v248q0 147 -156 147q-155 0 -155 -147v-248q0 -148 155 -148q156 0 156 148zM415 -388v223h233v-223h-233zM889 895q0 -1 1 -2q92 -102 92 -279v-231q0 -177 -92 -279q-114 -124 -359 -124q-244 0 -358 124q-92 102 -92 279v231q0 177 92 279q114 125 358 125
q155 0 257 -50l33 74h-70v197h209v-214z" />
    <glyph glyph-name="uni1EE4" unicode="&#x1ee4;" horiz-adv-x="1273" 
d="M1150 1364v-967q0 -176 -113 -286q-134 -131 -401 -131t-401 131q-113 110 -113 286v967h307v-938q0 -174 207 -174t207 174v938h307zM519 -388v223h234v-223h-234z" />
    <glyph glyph-name="uni1EE5" unicode="&#x1ee5;" horiz-adv-x="1132" 
d="M417 997v-659q0 -72 72 -72q84 0 215 72v659h295v-997h-220l-30 76q-199 -96 -398 -96q-229 0 -229 319v698h295zM465 -388v223h233v-223h-233z" />
    <glyph glyph-name="uni1EE6" unicode="&#x1ee6;" horiz-adv-x="1273" 
d="M1150 1364v-967q0 -176 -113 -286q-134 -131 -401 -131t-401 131q-113 110 -113 286v967h307v-938q0 -174 207 -174t207 174v938h307zM540 1552q97 73 117 96q16 20 16 55q0 57 -81 57q-30 0 -68 -4q-32 -4 -82 -13l-22 139q105 22 188 22q126 0 179 -52q45 -45 45 -142
q0 -92 -29 -133q-30 -42 -173 -147z" />
    <glyph glyph-name="uni1EE7" unicode="&#x1ee7;" horiz-adv-x="1132" 
d="M417 997v-659q0 -72 72 -72q84 0 215 72v659h295v-997h-220l-30 76q-199 -96 -398 -96q-229 0 -229 319v698h295zM469 1165q83 62 98 80q10 12 10 35q0 35 -53 35q-23 0 -52 -3q-25 -3 -73 -12l-21 128q93 19 158 19q103 0 147 -43q38 -38 38 -118q0 -75 -25 -109
q-24 -34 -145 -123z" />
    <glyph glyph-name="uni1EE8" unicode="&#x1ee8;" horiz-adv-x="1273" 
d="M491 1604q90 57 147 95q77 51 131 93l111 -172q-116 -82 -287 -172zM1150 1228v-831q0 -176 -113 -286q-134 -131 -401 -131t-401 131q-113 110 -113 286v967h307v-938q0 -174 207 -174t207 174v938h238l22 49h-70v197h209v-214z" />
    <glyph glyph-name="uni1EE9" unicode="&#x1ee9;" horiz-adv-x="1132" 
d="M419 1255q86 55 151 99q83 55 158 110l111 -172q-174 -113 -318 -192zM998 855v-855h-219l-30 76q-200 -96 -398 -96q-229 0 -229 319v698h295v-659q0 -72 71 -72q85 0 216 72v659h228l20 45h-70v197h209v-214z" />
    <glyph glyph-name="uni1EEA" unicode="&#x1eea;" horiz-adv-x="1273" 
d="M689 1448q-170 90 -286 172l110 172q55 -42 132 -93l147 -95zM1150 1228v-831q0 -176 -113 -286q-134 -131 -401 -131t-401 131q-113 110 -113 286v967h307v-938q0 -174 207 -174t207 174v938h238l22 49h-70v197h209v-214z" />
    <glyph glyph-name="uni1EEB" unicode="&#x1eeb;" horiz-adv-x="1132" 
d="M601 1100q-143 79 -317 192l110 172q75 -55 158 -110l152 -99zM998 855v-855h-219l-30 76q-200 -96 -398 -96q-229 0 -229 319v698h295v-659q0 -72 71 -72q85 0 216 72v659h228l20 45h-70v197h209v-214z" />
    <glyph glyph-name="uni1EEC" unicode="&#x1eec;" horiz-adv-x="1273" 
d="M540 1552q97 73 117 96q16 20 16 55q0 57 -81 57q-30 0 -68 -4q-32 -4 -82 -13l-22 139q105 22 188 22q126 0 179 -52q45 -45 45 -142q0 -92 -29 -133q-30 -42 -173 -147zM1150 1228v-831q0 -176 -113 -286q-134 -131 -401 -131t-401 131q-113 110 -113 286v967h307v-938
q0 -174 207 -174t207 174v938h238l22 49h-70v197h209v-214z" />
    <glyph glyph-name="uni1EED" unicode="&#x1eed;" horiz-adv-x="1132" 
d="M469 1165q83 62 98 80q10 12 10 35q0 35 -53 35q-23 0 -52 -3q-25 -3 -73 -12l-21 128q93 19 158 19q103 0 146 -43q39 -38 39 -118q0 -75 -25 -109q-24 -34 -145 -123zM998 855v-855h-219l-30 76q-200 -96 -398 -96q-229 0 -229 319v698h295v-659q0 -72 71 -72
q85 0 216 72v659h228l20 45h-70v197h209v-214z" />
    <glyph glyph-name="uni1EEE" unicode="&#x1eee;" horiz-adv-x="1273" 
d="M637 1511q-62 45 -94 45q-30 0 -60 -32q-10 -11 -23 -30l-19 -30l-119 92q40 78 90 124q59 55 125 55q69 0 133 -43q72 -47 104 -47q60 0 78 84l140 -64q-56 -197 -218 -197q-75 0 -137 43zM1150 1228v-831q0 -176 -113 -286q-134 -131 -401 -131t-401 131
q-113 110 -113 286v967h307v-938q0 -174 207 -174t207 174v938h238l22 49h-70v197h209v-214z" />
    <glyph glyph-name="uni1EEF" unicode="&#x1eef;" horiz-adv-x="1132" 
d="M537 1231q-63 45 -95 45q-30 0 -59 -32q-11 -12 -23 -30l-20 -30l-119 92q40 78 90 124q60 54 125 54q69 0 133 -43q73 -47 105 -47q59 0 78 84l139 -63q-56 -197 -217 -197q-76 0 -137 43zM998 855v-855h-219l-30 76q-200 -96 -398 -96q-229 0 -229 319v698h295v-659
q0 -72 71 -72q85 0 216 72v659h228l20 45h-70v197h209v-214z" />
    <glyph glyph-name="uni1EF0" unicode="&#x1ef0;" horiz-adv-x="1273" 
d="M1150 1228v-831q0 -176 -113 -286q-134 -131 -401 -131t-401 131q-113 110 -113 286v967h307v-938q0 -174 207 -174t207 174v938h238l22 49h-70v197h209v-214zM519 -388v223h234v-223h-234z" />
    <glyph glyph-name="uni1EF1" unicode="&#x1ef1;" horiz-adv-x="1132" 
d="M465 -388v223h233v-223h-233zM998 855v-855h-219l-30 76q-200 -96 -398 -96q-229 0 -229 319v698h295v-659q0 -72 71 -72q85 0 216 72v659h228l20 45h-70v197h209v-214z" />
    <glyph glyph-name="Ygrave" unicode="&#x1ef2;" horiz-adv-x="1155" 
d="M731 393v-393h-307v393l-424 971h322l256 -633l256 633h321zM643 1448q-171 90 -287 172l111 172q54 -42 131 -93l147 -95z" />
    <glyph glyph-name="ygrave" unicode="&#x1ef3;" horiz-adv-x="1013" 
d="M295 -403l116 403h-94l-307 997h299l203 -706l203 706h299l-441 -1400h-278zM602 1100q-143 79 -318 192l111 172q75 -55 158 -110l151 -99z" />
    <glyph glyph-name="uni1EF4" unicode="&#x1ef4;" horiz-adv-x="1155" 
d="M731 393v-393h-307v393l-424 971h322l256 -633l256 633h321zM463 -388v223h233v-223h-233z" />
    <glyph glyph-name="uni1EF5" unicode="&#x1ef5;" horiz-adv-x="1013" 
d="M295 -403l116 403h-94l-307 997h299l203 -706l203 706h299l-441 -1400h-278zM707 -388v223h233v-223h-233z" />
    <glyph glyph-name="uni1EF6" unicode="&#x1ef6;" horiz-adv-x="1155" 
d="M731 393v-393h-307v393l-424 971h322l256 -633l256 633h321zM541 1562q97 73 117 96q16 20 16 55q0 57 -81 57q-30 0 -68 -4q-32 -4 -82 -13l-22 139q105 22 188 22q126 0 178 -52q46 -45 46 -142q0 -92 -29 -133q-30 -42 -173 -147z" />
    <glyph glyph-name="uni1EF7" unicode="&#x1ef7;" horiz-adv-x="1013" 
d="M295 -403l116 403h-94l-307 997h299l203 -706l203 706h299l-441 -1400h-278zM470 1165q83 62 97 80q11 12 11 35q0 35 -53 35q-23 0 -52 -3q-25 -3 -73 -12l-21 128q93 19 158 19q102 0 146 -43q38 -38 38 -118q0 -75 -24 -109t-145 -123z" />
    <glyph glyph-name="uni1EF8" unicode="&#x1ef8;" horiz-adv-x="1155" 
d="M731 393v-393h-307v393l-424 971h322l256 -633l256 633h321zM634 1561q-62 45 -94 45q-30 0 -60 -32q-10 -11 -23 -30l-19 -30l-119 92q40 78 90 124q59 55 125 55q68 0 133 -43q72 -47 104 -47q60 0 78 84l140 -64q-56 -197 -218 -197q-75 0 -137 43z" />
    <glyph glyph-name="uni1EF9" unicode="&#x1ef9;" horiz-adv-x="1013" 
d="M295 -403l116 403h-94l-307 997h299l203 -706l203 706h299l-441 -1400h-278zM518 1161q-62 45 -94 45q-30 0 -59 -32q-11 -12 -23 -30l-20 -30l-119 92q40 78 90 124q59 54 125 54q69 0 133 -43q72 -47 105 -47q59 0 77 84l140 -63q-56 -197 -217 -197q-76 0 -138 43z
" />
    <glyph glyph-name="quoteleft" unicode="&#x2018;" horiz-adv-x="548" 
d="M313 1446l133 -76l-116 -229h98v-340h-295v360z" />
    <glyph glyph-name="quoteright" unicode="&#x2019;" horiz-adv-x="528" 
d="M235 760l-133 76l117 229h-99v340h295v-361z" />
    <glyph glyph-name="quotedblleft" unicode="&#x201c;" horiz-adv-x="989" 
d="M313 1446l133 -76l-116 -229h98v-340h-295v360zM754 1446l133 -76l-117 -229h98v-340h-295v360z" />
    <glyph glyph-name="quotedblright" unicode="&#x201d;" horiz-adv-x="989" 
d="M675 760l-133 76l117 229h-98v340h295v-361zM235 760l-133 76l117 229h-99v340h295v-361z" />
    <glyph glyph-name="ellipsis" unicode="&#x2026;" horiz-adv-x="1683" 
d="M133 0v340h295v-340h-295zM694 0v340h295v-340h-295zM1255 0v340h295v-340h-295z" />
    <glyph glyph-name="ugrave" horiz-adv-x="582" 
 />
    <glyph glyph-name="uacute" horiz-adv-x="580" 
 />
    <glyph glyph-name="yacute" horiz-adv-x="629" 
 />
    </font>
</defs>
</svg>
