<?xml version="1.0" encoding="utf-8"?>
<!-- Generator: Adobe Illustrator 16.0.0, SVG Export Plug-In . SVG Version: 6.00 Build 0)  -->
<!DOCTYPE svg PUBLIC "-//W3C//DTD SVG 1.1//EN" "http://www.w3.org/Graphics/SVG/1.1/DTD/svg11.dtd">
<svg version="1.1" id="Isolation_Mode" xmlns="http://www.w3.org/2000/svg" xmlns:xlink="http://www.w3.org/1999/xlink" x="0px"
	 y="0px" width="814.918px" height="574.47px" viewBox="0 0 814.918 574.47" enable-background="new 0 0 814.918 574.47"
	 xml:space="preserve">
<g opacity="0.8">
	<g opacity="0.84">
		
			<linearGradient id="SVGID_1_" gradientUnits="userSpaceOnUse" x1="-761.5288" y1="-281.5503" x2="-49.131" y2="-281.5503" gradientTransform="matrix(-0.4024 0.9155 -0.9155 -0.4024 -57.3725 710.9946)">
			<stop  offset="0" style="stop-color:#61AE47"/>
			<stop  offset="1" style="stop-color:#174208"/>
		</linearGradient>
		<polygon fill="url(#SVGID_1_)" points="821.617,739.038 821.617,452.46 0,-47.915 0,114.397 527.07,739.038 		"/>
		
			<linearGradient id="SVGID_2_" gradientUnits="userSpaceOnUse" x1="-62.0596" y1="177.0205" x2="650.4211" y2="177.0205" gradientTransform="matrix(0.8751 0.4839 -0.4839 0.8751 329.2141 81.3813)">
			<stop  offset="0" style="stop-color:#61AE47"/>
			<stop  offset="1" style="stop-color:#174208"/>
		</linearGradient>
		<polygon fill="url(#SVGID_2_)" points="821.617,3.966 593.055,-122.433 0,596.464 0,653.601 821.617,241.188 		"/>
		
			<linearGradient id="SVGID_3_" gradientUnits="userSpaceOnUse" x1="-816.7412" y1="982.9902" x2="-104.3304" y2="982.9902" gradientTransform="matrix(-0.0762 -0.9971 0.9971 -0.0762 -619.477 -246.5322)">
			<stop  offset="0" style="stop-color:#61AE47"/>
			<stop  offset="1" style="stop-color:#174208"/>
		</linearGradient>
		<polygon fill="url(#SVGID_3_)" points="821.617,333.022 0,-141.944 0,336.491 821.617,425.843 		"/>
		
			<linearGradient id="SVGID_4_" gradientUnits="userSpaceOnUse" x1="-1151.376" y1="548.3223" x2="-784.6736" y2="548.3223" gradientTransform="matrix(-0.6433 -0.7656 1.5442 -1.2976 -1089.2848 307.6831)">
			<stop  offset="0" style="stop-color:#61AE47"/>
			<stop  offset="1" style="stop-color:#174208"/>
		</linearGradient>
		<polygon fill="url(#SVGID_4_)" points="821.617,139.499 0,459.612 0,608.038 77.596,700.394 821.617,184.255 		"/>
		
			<linearGradient id="SVGID_5_" gradientUnits="userSpaceOnUse" x1="-97.6895" y1="487.3535" x2="407.9161" y2="487.3535" gradientTransform="matrix(0.9954 -0.0953 0.1437 1.5012 186.5204 -444.9648)">
			<stop  offset="0" style="stop-color:#61AE47"/>
			<stop  offset="1" style="stop-color:#174208"/>
		</linearGradient>
		<polygon fill="url(#SVGID_5_)" points="287.602,739.038 599.207,-168.188 251.094,-168.188 225.877,739.038 		"/>
	</g>
	<g opacity="0.64">
		
			<linearGradient id="SVGID_6_" gradientUnits="userSpaceOnUse" x1="-1064.7266" y1="509.3477" x2="-352.3149" y2="509.3477" gradientTransform="matrix(-0.9876 -0.1569 0.1569 -0.9876 -578.3363 662.9417)">
			<stop  offset="0" style="stop-color:#61AE47"/>
			<stop  offset="1" style="stop-color:#174208"/>
		</linearGradient>
		<polygon fill="url(#SVGID_6_)" points="312.113,739.038 583.273,-168.188 442.988,-168.188 0,461.163 0,739.038 		"/>
		
			<linearGradient id="SVGID_7_" gradientUnits="userSpaceOnUse" x1="-868.0825" y1="-96.7021" x2="-155.6588" y2="-96.7021" gradientTransform="matrix(-0.246 0.9693 -0.9693 -0.246 127.7028 876.9747)">
			<stop  offset="0" style="stop-color:#61AE47"/>
			<stop  offset="1" style="stop-color:#174208"/>
		</linearGradient>
		<polygon fill="url(#SVGID_7_)" points="717.766,739.038 814.918,356.214 0,-20.663 0,77.46 582.359,739.038 		"/>
		
			<linearGradient id="SVGID_8_" gradientUnits="userSpaceOnUse" x1="-181.2607" y1="440.7695" x2="531.2126" y2="440.7695" gradientTransform="matrix(0.9451 -0.3268 0.3268 0.9451 204.9151 -124.6298)">
			<stop  offset="0" style="stop-color:#61AE47"/>
			<stop  offset="1" style="stop-color:#174208"/>
		</linearGradient>
		<polygon fill="url(#SVGID_8_)" points="419.732,739.038 668.441,-168.188 315.879,-168.188 215.654,-133.532 345.975,739.038 		
			"/>
		
			<linearGradient id="SVGID_9_" gradientUnits="userSpaceOnUse" x1="-316.2861" y1="539.7578" x2="50.3594" y2="539.7578" gradientTransform="matrix(0.5773 -0.8166 1.647 1.1644 -450.4803 -437.9314)">
			<stop  offset="0" style="stop-color:#61AE47"/>
			<stop  offset="1" style="stop-color:#174208"/>
		</linearGradient>
		<polygon fill="url(#SVGID_9_)" points="688.766,739.038 42.176,-151.306 0,-91.646 0,162.085 674.367,739.038 		"/>
		
			<linearGradient id="SVGID_10_" gradientUnits="userSpaceOnUse" x1="-632.4102" y1="23.4102" x2="-126.8344" y2="23.4102" gradientTransform="matrix(0.3448 0.9387 -1.4156 0.52 601.1089 606.0394)">
			<stop  offset="0" style="stop-color:#61AE47"/>
			<stop  offset="1" style="stop-color:#174208"/>
		</linearGradient>
		<polygon fill="url(#SVGID_10_)" points="821.617,94.173 790.551,9.608 0,193.714 0,286.522 821.617,347.636 		"/>
	</g>
</g>
</svg>
